<?xml version="1.0" standalone="no"?>
<!DOCTYPE svg PUBLIC "-//W3C//DTD SVG 1.1//EN" "http://www.w3.org/Graphics/SVG/1.1/DTD/svg11.dtd" >
<svg>
<metadata>
Created by FontForge 20090914 at Fri Oct 14 18:41:25 2016
 By www-data
Copyright (c) 2015 by Rajesh Rajput. All rights reserved.
</metadata>
<defs>
<font id="Break-ExtraLight" horiz-adv-x="534" >
  <font-face 
    font-family="Break"
    font-weight="250"
    font-stretch="normal"
    units-per-em="1000"
    panose-1="0 0 0 0 0 0 0 0 0 0"
    ascent="750"
    descent="-250"
    x-height="443"
    cap-height="680"
    bbox="-1.00024 -301.002 765.8 700"
    underline-thickness="50"
    underline-position="-50"
    unicode-range="U+000D-U+2044"
  />
<missing-glyph horiz-adv-x="500" 
 />
    <glyph glyph-name=".notdef" horiz-adv-x="500" 
 />
    <glyph glyph-name="NULL" horiz-adv-x="0" 
 />
    <glyph glyph-name="NULL" horiz-adv-x="0" 
 />
    <glyph glyph-name="nonmarkingreturn" unicode="&#xd;" horiz-adv-x="300" 
 />
    <glyph glyph-name="space" unicode=" " horiz-adv-x="150" 
 />
    <glyph glyph-name="exclam" unicode="!" horiz-adv-x="204" 
d="M19 126c-2.66699 0 -4 1.66699 -4 5v545c0 2.66699 1.33301 4 4 4c3.33301 0 5 -1.33301 5 -4v-545c0 -3.33301 -1.66699 -5 -5 -5zM19 38c12.667 0 19 -6.33301 19 -19s-6.33301 -19 -19 -19c-5.33301 -0 -9.83301 1.83301 -13.5 5.5s-5.5 8.16699 -5.5 13.5
s1.83301 9.83301 5.5 13.5s8.16699 5.5 13.5 5.5z" />
    <glyph glyph-name="quotedbl" unicode="&#x22;" horiz-adv-x="833" 
 />
    <glyph glyph-name="numbersign" unicode="#" horiz-adv-x="800" 
d="M675 220c3.33301 0 4.99902 -1.66699 4.99902 -5c0 -2.66699 -1.66699 -4 -5 -4h-223l-29 -207c0 -2.66699 -1.33301 -4 -4 -4h-1c-1.33301 0 -2.33301 0.5 -3 1.5s-0.666992 2.16699 0 3.5l28 206h-241l-28 -207c-1.33301 -2.66699 -3 -4 -5 -4
c-4.66699 0 -6 1.66699 -4 5l28 206h-189c-2.66699 0 -4 1.33301 -4 4c0 3.33301 1.33301 5 4 5h190l33 240h-223c-2.66699 0 -4 1.66699 -4 5c0 2.66699 1.33301 4 4 4h224l28 207c0.666992 2.66699 2.66699 4 6 4s4.33301 -1.66699 3 -5l-28 -206h241l28 207
c0.666992 2.66699 2.33398 4 5.00098 4s4 -1.66699 4 -5l-28 -206h188c3.33301 0 5 -1.33301 5 -4c0 -3.33301 -1.66699 -5 -5 -5h-189l-33 -240h222zM443.999 220l33 240h-241l-33 -240h241z" />
    <glyph glyph-name="dollar" unicode="$" horiz-adv-x="490" 
d="M343 235c0 -23.333 -4.33496 -45.167 -13.002 -65.5s-20.5 -38.333 -35.5 -54s-32.667 -28 -53 -37s-42.166 -13.833 -65.499 -14.5v-59c0 -3.33301 -1.33301 -5 -4 -5c-3.33301 0 -5 1.66699 -5 5v59c-23.333 0.666992 -45.166 5.5 -65.499 14.5s-38 21.333 -53 37
s-26.833 33.667 -35.5 54s-13 42.166 -13 65.499c0 36 10 68 30 96c1.33301 2.66699 3.33301 3.33398 6 2.00098c2.66699 -2.66699 3 -5 1 -7c-18.667 -28 -28 -58.333 -28 -91c0 -22 4.16699 -42.667 12.5 -62s19.666 -36.333 33.999 -51s31 -26.334 50 -35.001
s39.5 -13.334 61.5 -14.001v325c-14.667 0.666992 -28.334 4 -41.001 10s-23.667 14 -33 24s-16.666 21.333 -21.999 34s-8 26.334 -8 41.001s2.66699 28.5 8 41.5s12.666 24.333 21.999 34s20.333 17.5 33 23.5s26.334 9.33301 41.001 10v59c0 3.33301 1.66699 5 5 5
c2.66699 0 4 -1.66699 4 -5v-58c14.667 -0.666992 28.5 -4 41.5 -10s24.333 -14 34 -24s17.334 -21.5 23.001 -34.5s8.5 -26.833 8.5 -41.5c0 -3.33301 -1.66699 -5 -5 -5s-5 1.66699 -5 5c0 14 -2.66699 27 -8 39s-12.5 22.667 -21.5 32s-19.5 16.666 -31.5 21.999
s-25 8 -39 8s-27 -2.66699 -39 -8s-22.5 -12.666 -31.5 -21.999s-16.167 -20 -21.5 -32s-8 -25 -8 -39c0 -28 9.66699 -51.667 29 -71s43 -29 71 -29c23.333 0 45.333 -4.66699 66 -14s38.667 -21.666 54 -36.999s27.5 -33.5 36.5 -54.5s13.5 -43.167 13.5 -66.5z
M175.998 72.999c22 0.666992 42.667 5.33008 62 13.9971s36 20.334 50 35.001s25.167 31.667 33.5 51s12.5 40 12.5 62s-4.16699 42.667 -12.5 62s-19.5 36.333 -33.5 51s-30.667 26.334 -50 35.001s-40 13.334 -62 14.001v-324z" />
    <glyph glyph-name="percent" unicode="%" horiz-adv-x="833" 
d="M505 679c2 -1.33301 2.66602 -3.33301 1.99902 -6l-359 -671c-1.33301 -1.33301 -2.66602 -2 -3.99902 -2h-2c-2 2 -2.66699 4.33301 -2 7l359 671c1.33301 2.66699 3.33301 3 6 1zM217.999 455c0 -15.333 -2.83301 -29.5 -8.5 -42.5s-13.5 -24.5 -23.5 -34.5
s-21.667 -17.833 -35 -23.5s-27.333 -8.5 -42 -8.5c-15.333 0 -29.5 2.83301 -42.5 8.5s-24.5 13.5 -34.5 23.5s-17.833 21.5 -23.5 34.5s-8.5 27.167 -8.5 42.5c0 14.667 2.83301 28.667 8.5 42s13.5 25 23.5 35s21.5 17.833 34.5 23.5s27.167 8.5 42.5 8.5
c14.667 0 28.667 -2.83301 42 -8.5s25 -13.5 35 -23.5s17.833 -21.667 23.5 -35s8.5 -27.333 8.5 -42zM108.999 355c28 0 51.667 9.66699 71 29s29 43 29 71s-9.66699 51.667 -29 71s-43 29 -71 29s-51.667 -9.66699 -71 -29s-29 -43 -29 -71s9.66699 -51.667 29 -71
s43 -29 71 -29zM519.999 322c14.667 0 28.667 -2.83301 42 -8.5s25 -13.5 35 -23.5s17.833 -21.667 23.5 -35s8.5 -27.333 8.5 -42c0 -15.333 -2.83301 -29.5 -8.5 -42.5s-13.5 -24.5 -23.5 -34.5s-21.667 -17.833 -35 -23.5s-27.333 -8.5 -42 -8.5
c-15.333 0 -29.5 2.83301 -42.5 8.5s-24.5 13.5 -34.5 23.5s-17.833 21.5 -23.5 34.5s-8.5 27.167 -8.5 42.5c0 14.667 2.83301 28.667 8.5 42s13.5 25 23.5 35s21.5 17.833 34.5 23.5s27.167 8.5 42.5 8.5zM519.999 113c28 0 51.667 9.66699 71 29s29 43 29 71
s-9.66699 51.667 -29 71s-43 29 -71 29s-51.667 -9.66699 -71 -29s-29 -43 -29 -71s9.66699 -51.667 29 -71s43 -29 71 -29z" />
    <glyph glyph-name="ampersand" unicode="&#x26;" horiz-adv-x="615" 
d="M478 439c3.33301 -16.667 0.499023 -32.1719 -8.50098 -46.5049s-21.833 -23.166 -38.5 -26.499l-49 -11c34 -40 51 -86.333 51 -139c0 -30 -5.66699 -58 -17 -84s-26.833 -48.833 -46.5 -68.5s-42.667 -35.167 -69 -46.5s-54.5 -17 -84.5 -17s-58 5.66699 -84 17
s-48.833 26.833 -68.5 46.5s-35.167 42.5 -46.5 68.5s-17 54 -17 84c0 36 8.33301 69.833 25 101.5s40 57.834 70 78.501l137 90c-2.66699 0 -5.16699 -0.166992 -7.5 -0.5s-5.16602 -0.5 -8.49902 -0.5c-13.333 0 -25.833 2.5 -37.5 7.5s-22 12 -31 21s-16 19.5 -21 31.5
s-7.5 24.667 -7.5 38s2.5 25.833 7.5 37.5s12 22 21 31s19.333 16 31 21s24.167 7.5 37.5 7.5s26 -2.5 38 -7.5s22.5 -12 31.5 -21s16 -19.333 21 -31s7.5 -24.167 7.5 -37.5c0 -17.333 -4 -33 -12 -47s-18.667 -25.333 -32 -34l-170 -114
c-28.667 -19.333 -51 -44.166 -67 -74.499s-24 -62.833 -24 -97.5c0 -28.667 5.5 -55.5 16.5 -80.5s25.833 -46.833 44.5 -65.5s40.5 -33.5 65.5 -44.5s51.833 -16.5 80.5 -16.5s55.667 5.5 81 16.5s47.333 25.833 66 44.5s33.5 40.5 44.5 65.5s16.5 51.833 16.5 80.5
c0 52.667 -17.333 98.334 -52 137.001l-37 -8c-14.667 -3.33301 -25.667 -11 -33 -23c-7.33301 -11.333 -10 -24.666 -8 -39.999c1.33301 -3.33301 0.333008 -5 -3 -5h-1c-2.66699 0 -4 1 -4 3c-4 16.667 -1.33301 32.334 8 47.001c8.66699 14 21.667 23 39 27l96 20
c14 3.33301 25 11.166 33 23.499s10.333 25.5 7 39.5c0 3.33301 1.33301 5 4 5c3.33301 1.33301 5 0.333008 5 -3zM127.999 582.995c0 -12 2.33301 -23.5 7 -34.5s11 -20.5 19 -28.5s17.333 -14.333 28 -19s22 -7 34 -7c24.667 0 45.667 8.66699 63 26s26 38.333 26 63
c0 12 -2.33301 23.333 -7 34s-11 20 -19 28s-17.5 14.333 -28.5 19s-22.5 7 -34.5 7s-23.333 -2.33301 -34 -7s-20 -11 -28 -19s-14.333 -17.333 -19 -28s-7 -22 -7 -34z" />
    <glyph glyph-name="parenleft" unicode="(" horiz-adv-x="373" 
d="M206 -301c-2 0 -3 0.335938 -3 1.00293c-66 66 -116.333 140.833 -151 224.5s-52 171.834 -52 264.501c-0 93.333 17.333 181.833 52 265.5s85 158.5 151 224.5c1.33301 1.33301 3.33301 1.33301 6 0c2 -2.66699 2 -5 0 -7
c-66.667 -66.667 -116.667 -141.834 -150 -225.501s-50 -169.334 -50 -257.001s16.667 -173.334 50 -257.001s83.333 -158.834 150 -225.501c2 -2.66699 2 -5 0 -7c-0.666992 -0.666992 -1.66699 -1 -3 -1z" />
    <glyph glyph-name="parenright" unicode=")" horiz-adv-x="373" 
d="M5 -301c-2 0 -3.33301 0.330078 -4 0.99707c-2.66699 2 -2.66699 4.33301 0 7c66.667 66.667 116.5 141.834 149.5 225.501s49.5 169.334 49.5 257.001s-16.5 173.334 -49.5 257.001s-82.833 158.834 -149.5 225.501c-2.66699 2 -2.66699 4.33301 0 7
c2 1.33301 4.33301 1.33301 7 0c66 -66 116.333 -140.833 151 -224.5s52 -172.167 52 -265.5c0 -92.667 -17.333 -180.834 -52 -264.501s-85 -158.5 -151 -224.5c-0.666992 -0.666992 -1.66699 -1 -3 -1z" />
    <glyph glyph-name="asterisk" unicode="*" horiz-adv-x="356" 
d="M233 569c2.66699 0 3.99805 -1.33301 3.99805 -4s-1.33301 -4 -4 -4h-106l68 -104c1.33301 -2.66699 0.666016 -4.66699 -2.00098 -6c0 -0.666992 -0.666992 -1 -2 -1s-2.66602 0.666992 -3.99902 2l-68 105l-69 -105c-1.33301 -1.33301 -2.66602 -2 -3.99902 -2
s-2 0.333008 -2 1c-2.66699 1.33301 -3.33398 3.33301 -2.00098 6l69 104h-107c-2.66699 0 -4 1.33301 -4 4s1.33301 4 4 4h107l-69 104c-1.33301 2.66699 -0.666016 4.66699 2.00098 6c1.33301 1.33301 3.33301 1 6 -1l69 -105l68 105c2.66699 2.66699 4.66699 3 6 1
c2.66699 -1.33301 3.33398 -3.33301 2.00098 -6l-68 -104h106v0z" />
    <glyph glyph-name="plus" unicode="+" horiz-adv-x="587" 
d="M466 227c3.33301 0 5 -1.66699 5 -5s-1.66699 -5 -5 -5h-226v-212c0 -3.33301 -1.66699 -5 -5 -5s-5 1.66699 -5 5v212h-226c-3.33301 0 -5 1.66699 -5 5s1.66699 5 5 5h226v212c0 3.33301 1.66699 5 5 5s5 -1.66699 5 -5v-212h226v0z" />
    <glyph glyph-name="comma" unicode="," horiz-adv-x="217" 
d="M37 75c10 0 18.666 -3.50098 25.999 -10.501s11 -15.833 11 -26.5c0 -3.33301 -0.333008 -6.16602 -1 -8.49902s-1.66699 -4.83301 -3 -7.5l-31 -67c-1.33301 -2 -2.66602 -3 -3.99902 -3s-2 0.333008 -2 1c-3.33301 1.33301 -4.33301 3.33301 -3 6l21 45
c-4 -2 -8.66699 -3 -14 -3c-10 0 -18.667 3.66699 -26 11s-11 16 -11 26c0 10.667 3.66699 19.5 11 26.5s16 10.5 26 10.5z" />
    <glyph glyph-name="hyphen" unicode="-" horiz-adv-x="321" 
d="M196 241h-190c-4 0 -6 2 -6 6s2 6 6 6h190c3.33301 0 5 -2 5 -6s-1.66699 -6 -5 -6z" />
    <glyph glyph-name="period" unicode="." horiz-adv-x="217" 
d="M37 73c10.667 0 19.5 -3.66699 26.5 -11s10.5 -16 10.5 -26c0 -10.667 -3.5 -19.667 -10.5 -27s-15.833 -11 -26.5 -11c-10 0 -18.667 3.66699 -26 11s-11 16.333 -11 27c0 10 3.66699 18.667 11 26s16 11 26 11z" />
    <glyph glyph-name="slash" unicode="/" horiz-adv-x="435" 
d="M283 680c3.33301 -1.33301 4.33301 -3.33301 3 -6l-278 -671c0 -2 -1.33301 -3 -4 -3h-1c-3.33301 1.33301 -4.33301 3.33301 -3 6l278 671c1.33301 2.66699 3 3.66699 5 3z" />
    <glyph glyph-name="zero" unicode="0" horiz-adv-x="553" 
d="M411 208c0 -28 -5.16699 -54.666 -15.5 -79.999s-24.666 -47.333 -42.999 -66s-40 -33.667 -65 -45s-51.5 -17 -79.5 -17h-3c-28 0 -54.333 5.33301 -79 16s-46.334 25.167 -65.001 43.5s-33.5 39.833 -44.5 64.5s-16.5 51 -16.5 79v269c0 3.33301 1.66699 5 5 5
s5 -1.66699 5 -5v-269c0 -26.667 5.33301 -51.667 16 -75s24.834 -43.833 42.501 -61.5s38.167 -31.5 61.5 -41.5s48.333 -15 75 -15h3c26.667 0 51.834 5.33301 75.501 16s44.334 25 62.001 43s31.334 38.833 41.001 62.5s14.5 49.167 14.5 76.5v269
c-0.666992 26 -6 50.833 -16 74.5s-24.333 44.5 -43 62.5s-39.667 31.833 -63 41.5s-48 14.5 -74 14.5h-2c-22.667 0 -44.334 -3.83301 -65.001 -11.5s-39.667 -18.5 -57 -32.5c-6 -5.33301 -11.667 -10.666 -17 -15.999s-10.333 -11.333 -15 -18c-6 -8 -11 -16 -15 -24
c-2.66699 -2.66699 -5 -3.33398 -7 -2.00098c-2.66699 1.33301 -3.33398 3.66602 -2.00098 6.99902c5.33301 9.33301 10.666 17.666 15.999 24.999c5.33301 6.66699 10.666 12.834 15.999 18.501s11.333 11.167 18 16.5c37.333 30 80 45.667 128 47h2
c27.333 0 53.333 -5 78 -15s46.667 -24.667 66 -44c40 -39.333 60.667 -87.333 62 -144v-269z" />
    <glyph glyph-name="one" unicode="1" horiz-adv-x="313" 
d="M146 680c3.33301 0 5 -1.66699 5 -5v-670c0 -3.33301 -1.66699 -5 -5 -5s-5 1.66699 -5 5v670c0 3.33301 1.66699 5 5 5zM48 584c2 2 4.33203 2.00098 6.99902 0.000976562c2 -2.66699 2 -5 0 -7l-47 -46c-1.33301 -1.33301 -2.33301 -2 -3 -2
c-1.33301 0 -2.66602 0.666992 -3.99902 2c-1.33301 0.666992 -2 1.66699 -2 3s0.666992 2.66602 2 3.99902z" />
    <glyph glyph-name="two" unicode="2" horiz-adv-x="520" 
d="M93 387c-1.33301 0 -2.66797 0.666992 -4.00098 2c-16.667 16 -29.5 34.5 -38.5 55.5s-13.5 43.167 -13.5 66.5s4.5 45.166 13.5 65.499s21.167 38.166 36.5 53.499s33.166 27.5 53.499 36.5s42.166 13.5 65.499 13.5s45.166 -4.5 65.499 -13.5
s38.166 -21.167 53.499 -36.5s27.5 -33.166 36.5 -53.499s13.5 -42.166 13.5 -65.499c0 -42.667 -14 -80 -42 -112l-257 -315c-1.33301 -1.33301 -2.66602 -2 -3.99902 -2c-0.666992 0 -1.66699 0.666992 -3 2c-2 0.666992 -2.33301 3 -1 7l257 314
c26.667 30 40 65.333 40 106c0 22 -4.16699 42.667 -12.5 62s-19.666 36.166 -33.999 50.499s-31.166 25.666 -50.499 33.999s-40 12.5 -62 12.5s-42.667 -4.16699 -62 -12.5s-36.166 -19.666 -50.499 -33.999s-25.666 -31.166 -33.999 -50.499s-12.5 -40 -12.5 -62
s4.16699 -42.833 12.5 -62.5s20.5 -37.167 36.5 -52.5c2 -2.66699 2 -5 0 -7c-1.33301 -1.33301 -2.33301 -2 -3 -2zM346.998 10c3.33301 0 5 -1.66699 5 -5s-1.66699 -5 -5 -5h-342c-3.33301 0 -5 1.66699 -5 5s1.66699 5 5 5h342z" />
    <glyph glyph-name="three" unicode="3" horiz-adv-x="519" 
d="M187 375c26 0 50.333 -4.99902 73 -14.999s42.5 -23.5 59.5 -40.5s30.5 -36.833 40.5 -59.5s15 -47 15 -73s-5 -50.333 -15 -73s-23.5 -42.5 -40.5 -59.5s-36.833 -30.333 -59.5 -40s-47 -14.5 -73 -14.5s-50.333 4.83301 -73 14.5s-42.5 23 -59.5 40
s-30.333 36.833 -40 59.5s-14.5 47 -14.5 73c-0 19.333 2.83301 38.166 8.5 56.499s13.834 35.166 24.501 50.499c2.66699 2.66699 5 3 7 1c3.33301 -1.33301 3.66602 -3.33301 0.999023 -6c-20.667 -31.333 -31 -65.333 -31 -102c0 -24.667 4.66699 -47.667 14 -69
s22 -40 38 -56s34.667 -28.667 56 -38s44.333 -14 69 -14s47.834 4.66699 69.501 14s40.5 22 56.5 38s28.667 34.667 38 56s14 44.333 14 69s-4.66699 47.834 -14 69.501s-22 40.5 -38 56.5s-34.833 28.667 -56.5 38s-44.834 14 -69.501 14c-3.33301 0 -5 1.66699 -5 5
s1.66699 5 5 5zM69 426.001c-2 -2 -4.33105 -1.66699 -6.99805 1c-21.333 28.667 -32 60.667 -32 96c0 21.333 4.16699 41.5 12.5 60.5s19.666 35.667 33.999 50s31 25.666 50 33.999s39.167 12.5 60.5 12.5c22 0 42.5 -4.16699 61.5 -12.5s35.667 -19.666 50 -33.999
s25.666 -31 33.999 -50s12.5 -39.167 12.5 -60.5c0 -39.333 -13 -74 -39 -104c-0.666992 -0.666992 -1.66699 -1 -3 -1c-2 0 -3.33301 0.333008 -4 1c-2.66699 2 -2.66699 4.33301 0 7c24 28 36 60.333 36 97c0 20 -3.83301 39 -11.5 57s-18.167 33.667 -31.5 47
s-29 23.833 -47 31.5s-37.333 11.5 -58 11.5c-20 0 -39 -3.83301 -57 -11.5s-33.667 -18.167 -47 -31.5s-23.833 -29 -31.5 -47s-11.5 -37 -11.5 -57c0 -34 10 -64 30 -90c2 -2 1.66699 -4.33301 -1 -7z" />
    <glyph glyph-name="four" unicode="4" horiz-adv-x="502" 
d="M346 147c3.33301 0 5.00195 -1.66699 5.00195 -5s-1.66699 -5 -5 -5h-55v-132c0 -3.33301 -1.66699 -5 -5 -5s-5 1.66699 -5 5v132h-276c-3.33301 0 -5 1.66699 -5 5s1.66699 5 5 5h276v510l-227 -433c-1.33301 -1.33301 -3 -2 -5 -2h-2
c-2.66699 0.666992 -3.33398 3 -2.00098 7l236 449c1.33301 1.33301 2.66602 2 3.99902 2h3c2 -2 3 -3.66699 3 -5v-528h55v0z" />
    <glyph glyph-name="five" unicode="5" horiz-adv-x="555" 
d="M207 413c28.667 0 55.5 -5.33301 80.5 -16s46.833 -25.334 65.5 -44.001s33.334 -40.5 44.001 -65.5s16 -51.833 16 -80.5s-5.33301 -55.5 -16 -80.5s-25.334 -46.833 -44.001 -65.5s-40.5 -33.5 -65.5 -44.5s-51.833 -16.5 -80.5 -16.5s-55.5 5.5 -80.5 16.5
s-46.833 25.833 -65.5 44.5s-33.5 40.5 -44.5 65.5s-16.5 51.833 -16.5 80.5c0 3.33301 1.66699 5 5 5s5 -1.66699 5 -5c0 -27.333 5.16699 -53 15.5 -77s24.333 -44.833 42 -62.5s38.5 -31.667 62.5 -42s49.667 -15.5 77 -15.5c26.667 0 52 5.16699 76 15.5
s45 24.333 63 42s32.167 38.5 42.5 62.5s15.5 49.667 15.5 77c0 26.667 -5.16699 52 -15.5 76s-24.5 45 -42.5 63s-39 32.167 -63 42.5s-49.333 15.5 -76 15.5c-28 0 -54.5 -5.66699 -79.5 -17s-47.167 -27 -66.5 -47c-2 -3.33301 -4.33301 -3.66602 -7 -0.999023
c-2.66699 2 -2.66699 4.33301 0 7c19.333 21.333 42.333 37.833 69 49.5s54.667 17.5 84 17.5zM76 446c-2.66699 1.33301 -3.66602 3.33301 -2.99902 6l40 223c0 2 0.666992 3 2 3c1.33301 1.33301 2.66602 2 3.99902 2h205c3.33301 0 5 -1.66699 5 -5s-1.66699 -5 -5 -5
h-202l-40 -220c0 -2.66699 -1.66699 -4 -5 -4h-1z" />
    <glyph glyph-name="six" unicode="6" horiz-adv-x="555" 
d="M160 468c-0.666992 0 -1.16797 0.166992 -1.50098 0.5s-0.833008 0.5 -1.5 0.5c-2 2 -2.33301 4.33301 -1 7l159 202c2.66699 2.66699 5 3 7 1s2.33301 -4.33301 1 -7l-159 -202c-1.33301 -1.33301 -2.66602 -2 -3.99902 -2zM206.999 413
c28.667 0 55.5 -5.33301 80.5 -16s46.833 -25.334 65.5 -44.001s33.334 -40.5 44.001 -65.5s16 -51.833 16 -80.5s-5.33301 -55.5 -16 -80.5s-25.334 -46.833 -44.001 -65.5s-40.5 -33.5 -65.5 -44.5s-51.833 -16.5 -80.5 -16.5s-55.5 5.5 -80.5 16.5
s-46.833 25.833 -65.5 44.5s-33.5 40.5 -44.5 65.5s-16.5 51.833 -16.5 80.5s5.5 55.5 16.5 80.5s25.833 46.833 44.5 65.5s40.5 33.334 65.5 44.001s51.833 16 80.5 16zM206.999 10c26.667 0 52 5.16699 76 15.5s45 24.333 63 42s32.167 38.5 42.5 62.5
s15.5 49.667 15.5 77c0 26.667 -5.16699 52 -15.5 76s-24.5 45 -42.5 63s-39 32.167 -63 42.5s-49.333 15.5 -76 15.5c-27.333 0 -53 -5.16699 -77 -15.5s-44.833 -24.5 -62.5 -42.5s-31.667 -39 -42 -63s-15.5 -49.333 -15.5 -76c0 -27.333 5.16699 -53 15.5 -77
s24.333 -44.833 42 -62.5s38.5 -31.667 62.5 -42s49.667 -15.5 77 -15.5z" />
    <glyph glyph-name="seven" unicode="7" horiz-adv-x="474" 
d="M321 680c3.33301 0 5 -1.66699 5 -5s-1.66699 -5 -5 -5h-316c-3.33301 0 -5 1.66699 -5 5s1.66699 5 5 5h316zM297 594c2.66699 -1.33301 3.66797 -3.33301 3.00098 -6l-176 -585c0 -2 -1.33301 -3 -4 -3h-2c-3.33301 1.33301 -4.33301 3.33301 -3 6l175 585
c1.33301 3.33301 3.66602 4.33301 6.99902 3z" />
    <glyph glyph-name="eight" unicode="8" horiz-adv-x="548" 
d="M244 402c23.333 -4.66699 45.0049 -12.998 65.0049 -24.998s37.167 -26.667 51.5 -44s25.666 -37.166 33.999 -59.499s12.5 -45.833 12.5 -70.5c0 -28 -5.33301 -54.333 -16 -79s-25.334 -46.167 -44.001 -64.5s-40.334 -32.833 -65.001 -43.5s-51 -16 -79 -16
s-54.333 5.33301 -79 16s-46.167 25.167 -64.5 43.5s-32.833 39.833 -43.5 64.5s-16 51 -16 79c0 30 6 58.167 18 84.5s29.333 49.166 52 68.499c2.66699 2.66699 4.66699 2.66699 6 0c2 -2.66699 2 -5 0 -7c-21.333 -18.667 -37.666 -40.667 -48.999 -66s-17 -52 -17 -80
c0 -26.667 5 -51.667 15 -75s23.833 -43.833 41.5 -61.5s38.167 -31.5 61.5 -41.5s48.333 -15 75 -15s51.834 5 75.501 15s44.167 23.833 61.5 41.5s31.166 38.167 41.499 61.5s15.5 48.333 15.5 75c0 26 -4.83301 50.5 -14.5 73.5s-22.834 43.333 -39.501 61
s-36.334 31.667 -59.001 42s-47 16.166 -73 17.499c-0.666992 -0.666992 -1.66699 -1 -3 -1h-5c-19.333 0 -37.666 3.66699 -54.999 11s-32.5 17.5 -45.5 30.5s-23.167 28.167 -30.5 45.5s-11 35.666 -11 54.999s3.66699 37.666 11 54.999s17.5 32.5 30.5 45.5
s28.167 23.167 45.5 30.5s35.666 11 54.999 11s37.666 -3.66699 54.999 -11s32.5 -17.5 45.5 -30.5s23.167 -28.167 30.5 -45.5s11 -35.666 11 -54.999c0 -32 -9.5 -60.333 -28.5 -85s-43.167 -41.667 -72.5 -51zM71.0049 538.002c0 -18 3.5 -35 10.5 -51s16.5 -30 28.5 -42
s26 -21.5 42 -28.5s33 -10.5 51 -10.5s35 3.5 51 10.5s30 16.5 42 28.5s21.5 26 28.5 42s10.5 33 10.5 51s-3.5 35 -10.5 51s-16.5 30 -28.5 42s-26 21.5 -42 28.5s-33 10.5 -51 10.5s-35 -3.5 -51 -10.5s-30 -16.5 -42 -28.5s-21.5 -26 -28.5 -42s-10.5 -33 -10.5 -51z" />
    <glyph glyph-name="nine" unicode="9" horiz-adv-x="555" 
d="M249 210c2 2 4.33203 2.33301 6.99902 1c2.66699 -2.66699 3 -5 1 -7l-159 -202c-1.33301 -1.33301 -2.66602 -2 -3.99902 -2s-2.33301 0.333008 -3 1c-2.66699 2 -2.66699 4.33301 0 7zM206.999 680c28.667 0 55.5 -5.5 80.5 -16.5s46.833 -25.833 65.5 -44.5
s33.334 -40.5 44.001 -65.5s16 -51.833 16 -80.5s-5.33301 -55.5 -16 -80.5s-25.334 -46.833 -44.001 -65.5s-40.5 -33.5 -65.5 -44.5s-51.833 -16.5 -80.5 -16.5s-55.5 5.5 -80.5 16.5s-46.833 25.833 -65.5 44.5s-33.5 40.5 -44.5 65.5s-16.5 51.833 -16.5 80.5
s5.5 55.5 16.5 80.5s25.833 46.833 44.5 65.5s40.5 33.5 65.5 44.5s51.833 16.5 80.5 16.5zM206.999 276c26.667 0 52 5.16699 76 15.5s45 24.5 63 42.5s32.167 38.833 42.5 62.5s15.5 49.167 15.5 76.5s-5.16699 53 -15.5 77s-24.5 44.833 -42.5 62.5s-39 31.667 -63 42
s-49.333 15.5 -76 15.5c-27.333 0 -53 -5.16699 -77 -15.5s-44.833 -24.333 -62.5 -42s-31.667 -38.5 -42 -62.5s-15.5 -49.667 -15.5 -77s5.16699 -52.833 15.5 -76.5s24.333 -44.5 42 -62.5s38.5 -32.167 62.5 -42.5s49.667 -15.5 77 -15.5z" />
    <glyph glyph-name="colon" unicode=":" horiz-adv-x="217" 
d="M37 369c-10 0 -18.667 3.66699 -26 11s-11 16.333 -11 27c0 10 3.66699 18.667 11 26s16 11 26 11c10.667 0 19.5 -3.66699 26.5 -11s10.5 -16 10.5 -26c0 -10.667 -3.5 -19.667 -10.5 -27s-15.833 -11 -26.5 -11zM37 73c10.667 0 19.5 -3.66699 26.5 -11
s10.5 -16 10.5 -26c0 -10.667 -3.5 -19.667 -10.5 -27s-15.833 -11 -26.5 -11c-10 0 -18.667 3.66699 -26 11s-11 16.333 -11 27c0 10 3.66699 18.667 11 26s16 11 26 11z" />
    <glyph glyph-name="semicolon" unicode=";" horiz-adv-x="217" 
d="M37 370c-10 0 -18.667 3.66699 -26 11s-11 16 -11 26s3.66699 18.667 11 26s16 11 26 11s18.667 -3.66699 26 -11s11 -16 11 -26s-3.66699 -18.667 -11 -26s-16 -11 -26 -11zM37 75c10 0 18.666 -3.50098 25.999 -10.501s11 -15.833 11 -26.5
c0 -3.33301 -0.333008 -6.16602 -1 -8.49902s-1.66699 -4.83301 -3 -7.5l-31 -67c-1.33301 -2 -2.66602 -3 -3.99902 -3s-2 0.333008 -2 1c-3.33301 1.33301 -4.33301 3.33301 -3 6l21 45c-4 -2 -8.66699 -3 -14 -3c-10 0 -18.667 3.66699 -26 11s-11 16 -11 26
c0 10.667 3.66699 19.5 11 26.5s16 10.5 26 10.5z" />
    <glyph glyph-name="less" unicode="&#x3c;" horiz-adv-x="372" 
d="M225 8c2 -2.66699 2 -5 0 -7c-0.666992 -0.666992 -1.66699 -1 -3 -1c-2 -0 -3.33301 0.333008 -4 1l-217 217c-0.666992 0.666992 -1 2 -1 4s0.333008 3.33301 1 4l217 217c2 1.33301 4.33301 1.33301 7 0c2 -2.66699 2 -5 0 -7l-214 -214z" />
    <glyph glyph-name="equal" unicode="=" horiz-adv-x="555" 
d="M430 163h-425c-3.33301 0 -5 1.66699 -5 5s1.66699 5 5 5h425c3.33301 0 5 -1.66699 5 -5s-1.66699 -5 -5 -5zM430 298h-425c-3.33301 0 -5 1.66699 -5 5s1.66699 5 5 5h425c3.33301 0 5 -1.66699 5 -5s-1.66699 -5 -5 -5z" />
    <glyph glyph-name="greater" unicode="&#x3e;" horiz-adv-x="372" 
d="M215 222l-214 214c-2.66699 2 -2.66699 4.33301 0 7c2 1.33301 4.33301 1.33301 7 0l217 -217c0.666992 -0.666992 1 -2 1 -4s-0.333008 -3.33301 -1 -4l-217 -217c-0.666992 -0.666992 -1.66699 -1 -3 -1c-2 -0 -3.33301 0.333008 -4 1c-2.66699 2 -2.66699 4.33301 0 7
z" />
    <glyph glyph-name="question" unicode="?" horiz-adv-x="493" 
d="M174 40c5.33301 0 10 -2 14 -6s6 -8.66699 6 -14s-2 -10 -6 -14s-8.66699 -6 -14 -6s-10 2 -14 6s-6 8.66699 -6 14s2 10 6 14s8.66699 6 14 6zM174 680c24 0 46.667 -4.49902 68 -13.499s39.833 -21.5 55.5 -37.5s28.167 -34.5 37.5 -55.5s14 -43.5 14 -67.5
s-4.5 -46.333 -13.5 -67s-21.167 -38.834 -36.5 -54.501s-33.333 -28.167 -54 -37.5s-42.667 -14.333 -66 -15v-203c0 -2.66699 -1.66699 -4 -5 -4c-2.66699 0 -4 1.33301 -4 4v207c0 3.33301 1.33301 5 4 5c22.667 0 44.167 4.33301 64.5 13s38 20.5 53 35.5
s26.833 32.5 35.5 52.5s13 41.333 13 64s-4.33301 44 -13 64s-20.5 37.5 -35.5 52.5s-32.667 26.833 -53 35.5s-41.833 13 -64.5 13s-44 -4.33301 -64 -13s-37.5 -20.5 -52.5 -35.5s-26.833 -32.5 -35.5 -52.5s-13 -41.333 -13 -64c0 -3.33301 -1.66699 -5 -5 -5
c-2.66699 0 -4 1.66699 -4 5c0 24 4.5 46.5 13.5 67.5s21.5 39.5 37.5 55.5s34.5 28.5 55.5 37.5s43.5 13.5 67.5 13.5z" />
    <glyph glyph-name="at" unicode="@" horiz-adv-x="800" 
d="M680 340c0 -64 -16.668 -123.336 -50.001 -178.003c-9.33301 -13.333 -21.166 -23.666 -35.499 -30.999s-29.166 -11 -44.499 -11c-18.667 0 -36.667 5.66699 -54 17c-16 11.333 -27.5 25.833 -34.5 43.5s-8.5 35.834 -4.5 54.501c-14.667 -16 -32 -28.667 -52 -38
s-41.667 -14 -65 -14c-22 0 -42.5 4.16699 -61.5 12.5s-35.5 19.5 -49.5 33.5s-25.167 30.5 -33.5 49.5s-12.5 39.5 -12.5 61.5s4.16699 42.5 12.5 61.5s19.5 35.5 33.5 49.5s30.5 25.167 49.5 33.5s39.5 12.5 61.5 12.5s42.5 -4.16699 61.5 -12.5s35.5 -19.5 49.5 -33.5
s25.167 -30.5 33.5 -49.5s12.5 -39.5 12.5 -61.5c0 -30 -7.66699 -57.333 -23 -82c-10.667 -20 -13.334 -40.667 -8.00098 -62s17 -38.666 35 -51.999c20 -12.667 42 -17 66 -13c23.333 4 41.666 16 54.999 36c32.667 53.333 49 111 49 173
c0 45.333 -8.66699 88.166 -26 128.499s-41 75.5 -71 105.5s-65.167 53.667 -105.5 71s-83.166 26 -128.499 26c-46 0 -89 -8.66699 -129 -26s-75 -41 -105 -71s-53.667 -65.167 -71 -105.5s-26 -83.166 -26 -128.499c0 -46 8.66699 -89 26 -129s41 -75 71 -105
s65 -53.667 105 -71s83 -26 129 -26c2.66699 0 4 -1.66699 4 -5c0 -2.66699 -1.33301 -4 -4 -4c-47.333 -0 -91.5 8.83301 -132.5 26.5s-77 42 -108 73s-55.333 67 -73 108s-26.5 85.167 -26.5 132.5c-0 46.667 8.83301 90.667 26.5 132s42 77.333 73 108s67 55 108 73
s85.167 27 132.5 27c46.667 0 90.667 -9 132 -27s77.333 -42.333 108 -73s55 -66.667 73 -108s27 -85.333 27 -132zM339.999 191.997c20.667 0 40 3.83301 58 11.5s33.667 18.167 47 31.5s23.833 29 31.5 47s11.5 37.333 11.5 58s-3.83301 40 -11.5 58
s-18.167 33.667 -31.5 47s-29 23.833 -47 31.5s-37.333 11.5 -58 11.5s-40 -3.83301 -58 -11.5s-33.667 -18.167 -47 -31.5s-23.833 -29 -31.5 -47s-11.5 -37.333 -11.5 -58s3.83301 -40 11.5 -58s18.167 -33.667 31.5 -47s29 -23.833 47 -31.5s37.333 -11.5 58 -11.5z" />
    <glyph glyph-name="A" unicode="A" horiz-adv-x="675" 
d="M608 6c1.33301 -2.66699 0.333984 -4.66699 -2.99902 -6h-2c-2 0 -3.33301 1 -4 3l-295 662l-177 -396h195c3.33301 0 5 -1.66699 5 -5c0 -2.66699 -1.66699 -4 -5 -4h-199l-114 -257c-1.33301 -2 -3 -3 -5 -3h-1c-3.33301 1.33301 -4.33301 3.33301 -3 6l300 672
c0 1.33301 1.33301 2 4 2c1.33301 0 2.66602 -0.666992 3.99902 -2l300 -672v0z" />
    <glyph glyph-name="B" unicode="B" horiz-adv-x="564" 
d="M223 447c30.667 0 59.6699 -5.83398 87.0029 -17.501s51.166 -27.667 71.499 -48s36.333 -44.166 48 -71.499s17.5 -56.333 17.5 -87s-5.83301 -59.5 -17.5 -86.5s-27.667 -50.667 -48 -71s-44.166 -36.333 -71.499 -48s-56.333 -17.5 -87 -17.5h-219
c-2.66699 -0 -4 1.33301 -4 4v527c0 3.33301 1.33301 5 4 5c3.33301 0 5 -1.66699 5 -5v-245c11.333 38 31.166 70.667 59.499 98s61.5 46 99.5 56h1c22 9.33301 39.667 24 53 44s20 42.333 20 67c0 16.667 -3.16699 32.167 -9.5 46.5s-14.833 27 -25.5 38
s-23.334 19.667 -38.001 26s-30.334 9.5 -47.001 9.5h-118c-2.66699 0 -4 1.33301 -4 4c-0 3.33301 1.33301 5 4 5h121h1c17.333 -0.666992 33.5 -4.5 48.5 -11.5s28.167 -16.167 39.5 -27.5s20.333 -24.833 27 -40.5s10 -32.167 10 -49.5
c0 -21.333 -4.83301 -41.333 -14.5 -60s-23.167 -34 -40.5 -46c4.66699 0.666992 9.16699 1.16699 13.5 1.5s8.83301 0.5 13.5 0.5zM223.003 8.99902c30 0 57.999 5.66797 83.999 17.001s48.667 26.666 68 45.999s34.666 42 45.999 68s17 53.667 17 83
c0 30 -5.66699 58 -17 84s-26.666 48.667 -45.999 68s-42 34.666 -68 45.999s-54 17 -84 17c-29.333 0 -57 -5.66699 -83 -17s-48.667 -26.666 -68 -45.999s-34.666 -42 -45.999 -68s-17 -54 -17 -84v-214h214z" />
    <glyph glyph-name="C" unicode="C" horiz-adv-x="663" 
d="M552 606c2 -2 1.99902 -3.99902 -0.000976562 -5.99902c-1.33301 -1.33301 -2.33301 -2 -3 -2c-1.33301 0 -2.33301 0.333008 -3 1c-60 48 -128.667 72 -206 72c-33.333 0 -65.5 -4.83301 -96.5 -14.5s-60.5 -23.5 -88.5 -41.5
c-2.66699 -2.66699 -4.66699 -2.33398 -6 0.999023c-1.33301 2.66699 -1 4.66699 1 6c28 19.333 58.167 33.833 90.5 43.5s65.5 14.5 99.5 14.5c39.333 0 76.833 -6.33301 112.5 -19s68.834 -31 99.501 -55zM339.999 9.00098c2.66699 0 4 -1.66895 4 -5.00195
c0 -2.66699 -1.33301 -4 -4 -4c-47.333 0 -91.5 8.83301 -132.5 26.5s-77 42 -108 73s-55.333 67 -73 108s-26.5 85.167 -26.5 132.5c0 48.667 9.33301 94 28 136c1.33301 2.66699 3.33301 3.33398 6 2.00098c3.33301 -1.33301 4.33301 -3 3 -5
c-18.667 -41.333 -28 -85.666 -28 -132.999c0 -46 8.66699 -89 26 -129s41 -75 71 -105s65 -53.667 105 -71s83 -26 129 -26z" />
    <glyph glyph-name="D" unicode="D" horiz-adv-x="594" 
d="M138 680c47.333 0 91.6699 -8.99512 133.003 -26.9951s77.5 -42.333 108.5 -73s55.5 -66.834 73.5 -108.501s27 -85.834 27 -132.501c0 -40 -6.83301 -78.5 -20.5 -115.5s-32.5 -70.167 -56.5 -99.5s-52.5 -54.5 -85.5 -75.5s-69.167 -35.5 -108.5 -43.5
c-8 -1.33301 -15.833 -2.5 -23.5 -3.5s-15.5 -1.5 -23.5 -1.5h-158c-2.66699 0 -4 1.33301 -4 4c0 3.33301 1.33301 5 4 5h158c13.333 0 28.333 1.66699 45 5c38 8 73.167 22 105.5 42s60.333 44.5 84 73.5s42 61.333 55 97s19.5 73.167 19.5 112.5
c0 46 -8.83301 89.167 -26.5 129.5s-41.5 75.5 -71.5 105.5s-65.167 53.667 -105.5 71s-83.5 26 -129.5 26c-18 0 -34.833 -3.33301 -50.5 -10s-29.334 -15.834 -41.001 -27.501s-20.834 -25.334 -27.501 -41.001s-10 -32.5 -10 -50.5v-397c0 -2.66699 -1.66699 -4 -5 -4
c-2.66699 0 -4 1.33301 -4 4v397c0 18.667 3.66699 36.5 11 53.5s17.166 31.667 29.499 44s26.833 22.166 43.5 29.499s34.667 11 54 11z" />
    <glyph glyph-name="E" unicode="E" horiz-adv-x="474" 
d="M345 9c2.66699 0 3.99805 -1.66602 3.99805 -4.99902c0 -2.66699 -1.33301 -4 -4 -4h-233c-15.333 0 -29.666 3 -42.999 9s-25 14 -35 24s-18 21.5 -24 34.5s-9.33301 27.167 -10 42.5v430c0 3.33301 1.33301 5 4 5c3.33301 0 5 -1.66699 5 -5v-196h166
c2.66699 0 4 -1.33301 4 -4c0 -3.33301 -1.33301 -5 -4 -5h-166v-222c0 -14 2.66699 -27.333 8 -40s12.833 -23.834 22.5 -33.501s20.834 -17.167 33.501 -22.5s26 -8 40 -8h232zM3.99805 671.001c-2.66699 0 -4 1.33301 -4 4c0 3.33301 1.33301 5 4 5h303
c2.66699 0 4 -1.66699 4 -5c0 -2.66699 -1.33301 -4 -4 -4h-303z" />
    <glyph glyph-name="F" unicode="F" horiz-adv-x="470" 
d="M4 218c3.33301 0 5 -1.33301 5 -4v-210c0 -2.66699 -1.66699 -4 -5 -4c-2.66699 -0 -4 1.33301 -4 4v210c-0 2.66699 1.33301 4 4 4zM381 680c2.66699 0 4.00195 -1.66602 4.00195 -4.99902c0 -2.66699 -1.33301 -4 -4 -4h-268c-14 0 -27.333 -2.66699 -40 -8
s-23.834 -12.833 -33.501 -22.5s-17.167 -20.834 -22.5 -33.501s-8 -26 -8 -40v-223h202c2.66699 0 4 -1.33301 4 -4c0 -3.33301 -1.33301 -5 -4 -5h-207c-2.66699 0 -4 1.66699 -4 5v230c0.666992 14.667 4 28.667 10 42s14 25 24 35s21.667 18 35 24s27.666 9 42.999 9
h269z" />
    <glyph glyph-name="G" unicode="G" horiz-adv-x="643" 
d="M528 145c2.66699 0 3.99902 -1.66895 3.99902 -5.00195v-78c0 -1.33301 -0.666992 -2.66602 -2 -3.99902c-22.667 -15.333 -46 -27.333 -70 -36c-22 -8.66699 -45.333 -14.667 -70 -18c-8 -1.33301 -16.167 -2.33301 -24.5 -3s-16.833 -1 -25.5 -1
c-47.333 0 -91.5 8.83301 -132.5 26.5s-77 42 -108 73s-55.333 67 -73 108s-26.5 85.167 -26.5 132.5c0 46.667 8.83301 90.667 26.5 132s42 77.333 73 108s67 55 108 73s85.167 27 132.5 27c68.667 0 131.667 -19 189 -57c2 -2 2.33301 -4 1 -6c-2 -2 -4 -2.66699 -6 -2
c-55.333 37.333 -116.666 56 -183.999 56c-46 0 -89 -8.66699 -129 -26s-75 -41 -105 -71s-53.667 -65.167 -71 -105.5s-26 -83.166 -26 -128.499c0 -46 8.66699 -89 26 -129s41 -75 71 -105s65 -53.667 105 -71s83 -26 129 -26c8 0 16.167 0.333008 24.5 1
s16.5 1.66699 24.5 3c22 2.66699 44.667 8.33398 68 17.001c24 9.33301 46 20.666 66 33.999v76c0 3.33301 1.66699 5 5 5zM527.999 288.998c2.66699 0 4 -1.66699 4 -5c0 -2.66699 -1.33301 -4 -4 -4h-84c-3.33301 0 -5 1.33301 -5 4c0 3.33301 1.66699 5 5 5h84z" />
    <glyph glyph-name="H" unicode="H" horiz-adv-x="596" 
d="M477 680c2.66699 0 4 -1.66699 4 -5v-671c0 -2.66699 -1.33301 -4 -4 -4c-3.33301 -0 -5 1.33301 -5 4v671c0 3.33301 1.66699 5 5 5zM332 344c3.33301 0 5 -1.33301 5 -4c0 -3.33301 -1.66699 -5 -5 -5h-323v-331c0 -2.66699 -1.66699 -4 -5 -4
c-2.66699 -0 -4 1.33301 -4 4v671c-0 3.33301 1.33301 5 4 5c3.33301 0 5 -1.66699 5 -5v-331h323z" />
    <glyph glyph-name="I" unicode="I" horiz-adv-x="487" 
d="M23 671c-2.66699 0 -4 1.33301 -4 4c0 3.33301 1.33301 5 4 5h318c2.66699 0 4 -1.66699 4 -5c0 -2.66699 -1.33301 -4 -4 -4h-318zM360 9c2.66699 0 4 -1.66699 4 -5c0 -2.66699 -1.33301 -4 -4 -4h-356c-2.66699 -0 -4 1.33301 -4 4c-0 3.33301 1.33301 5 4 5h174v522
c0 3.33301 1.33301 5 4 5c3.33301 0 5 -1.66699 5 -5v-522h173z" />
    <glyph glyph-name="J" unicode="J" horiz-adv-x="471" 
d="M173 0c-24 0 -46.501 4.5 -67.501 13.5s-39.333 21.333 -55 37s-28 34 -37 55s-13.5 43.5 -13.5 67.5c0 3.33301 1.33301 5 4 5c3.33301 0 5 -1.66699 5 -5c0 -22.667 4.33301 -43.834 13 -63.501s20.5 -37 35.5 -52s32.333 -26.833 52 -35.5s40.834 -13 63.501 -13
s44 4.33301 64 13s37.5 20.5 52.5 35.5s26.833 32.333 35.5 52s13 40.834 13 63.501c0 3.33301 1.33301 5 4 5c3.33301 0 5 -1.66699 5 -5c0 -24 -4.5 -46.5 -13.5 -67.5s-21.5 -39.333 -37.5 -55s-34.5 -28 -55.5 -37s-43.5 -13.5 -67.5 -13.5zM341.999 312
c-2.66699 0 -4 1.66699 -4 5v358c0 3.33301 1.33301 5 4 5c3.33301 0 5 -1.66699 5 -5v-358c0 -3.33301 -1.66699 -5 -5 -5z" />
    <glyph glyph-name="K" unicode="K" horiz-adv-x="549" 
d="M429 679c1.33301 -3.33301 1.33301 -5.66699 0 -7l-420 -450v-218c0 -2.66699 -1.66699 -4 -5 -4c-2.66699 -0 -4 1.33301 -4 4v219v448c-0 2.66699 1.33301 4 4 4c3.33301 0 5 -1.33301 5 -4v-436l413 444c2 1.33301 4.33301 1.33301 7 0zM400 7.99902
c1.33301 -2.66699 1.33301 -5 0 -7c-0.666992 -0.666992 -2 -1 -4 -1c-1.33301 0 -2.33301 0.333008 -3 1l-198 204c-1.33301 2 -1 4 1 6c1.33301 2.66699 3.33301 2.66699 6 0z" />
    <glyph glyph-name="L" unicode="L" horiz-adv-x="512" 
d="M4 259c-2.66699 0 -4 1.33301 -4 4v412c-0 3.33301 1.33301 5 4 5c3.33301 0 5 -1.66699 5 -5v-412c0 -2.66699 -1.66699 -4 -5 -4zM386 9c2.66699 0 4.00098 -1.66797 4.00098 -5.00098c0 -2.66699 -1.33301 -4 -4 -4h-267c-16.667 0 -32.167 3.16699 -46.5 9.5
s-26.833 14.833 -37.5 25.5s-19.167 23.167 -25.5 37.5s-9.5 29.833 -9.5 46.5c0 3.33301 1.33301 5 4 5c3.33301 0 5 -1.66699 5 -5c0 -15.333 2.83301 -29.666 8.5 -42.999s13.5 -25 23.5 -35s21.667 -17.833 35 -23.5s27.666 -8.5 42.999 -8.5h267z" />
    <glyph glyph-name="M" unicode="M" horiz-adv-x="697" 
d="M4 518c3.33301 0 5 -1.66699 5 -5v-509c0 -2.66699 -1.66699 -4 -5 -4c-2.66699 -0 -4 1.33301 -4 4v509c-0 3.33301 1.33301 5 4 5zM586 680c2.66699 0 4 -1.66602 4 -4.99902v-671c0 -2.66699 -1.33301 -4 -4 -4c-3.33301 0 -5 1.33301 -5 4v660l-282 -297
c-1.33301 -1.33301 -2.66602 -2 -3.99902 -2c-0.666992 0 -1.66699 0.666992 -3 2l-291 305c-1.33301 1.33301 -1.33301 3.66602 0 6.99902c2 1.33301 4.33301 1.33301 7 0l287 -303l287 302c1.33301 1.33301 2.66602 2 3.99902 2z" />
    <glyph glyph-name="N" unicode="N" horiz-adv-x="609" 
d="M4 680c3.33301 0 5 -1.66699 5 -5v-671c0 -2.66699 -1.66699 -4 -5 -4c-2.66699 -0 -4 1.33301 -4 4v671c-0 3.33301 1.33301 5 4 5zM491 680c2.66699 0 4 -1.66699 4 -5v-671c0 -2.66699 -1.33301 -4 -4 -4c-2 0 -3.33301 0.666992 -4 2l-362 506
c-1.33301 2.66699 -1 5 1 7c2.66699 1.33301 4.66699 1 6 -1l354 -496v657c0 3.33301 1.66699 5 5 5z" />
    <glyph glyph-name="O" unicode="O" horiz-adv-x="770" 
d="M340 680c46.667 0 90.666 -9 131.999 -27s77.333 -42.333 108 -73s55 -66.667 73 -108s27 -85.333 27 -132c0 -47.333 -9 -91.5 -27 -132.5s-42.333 -77 -73 -108s-66.667 -55.333 -108 -73s-85.333 -26.5 -132 -26.5c-47.333 -0 -91.5 8.83301 -132.5 26.5
s-77 42 -108 73s-55.333 67 -73 108s-26.5 85.167 -26.5 132.5c0 29.333 3.66699 57.833 11 85.5s17.666 54.167 30.999 79.5c2 2 4 2.33301 6 1c2.66699 -0.666992 3.33398 -2.66699 2.00098 -6c-27.333 -49.333 -41 -102.666 -41 -159.999c0 -46 8.66699 -89 26 -129
s41 -75 71 -105s65 -53.667 105 -71s83 -26 129 -26c45.333 0 88.166 8.66699 128.499 26s75.5 41 105.5 71s53.667 65 71 105s26 83 26 129c0 45.333 -8.66699 88.166 -26 128.499s-41 75.5 -71 105.5s-65.167 53.667 -105.5 71s-83.166 26 -128.499 26
c-28 0 -55.667 -3.5 -83 -10.5s-53 -17.167 -77 -30.5c-2.66699 -1.33301 -5 -1 -7 1c-1.33301 2.66699 -0.666016 4.66699 2.00098 6c51.333 28.667 106.333 43 165 43z" />
    <glyph glyph-name="P" unicode="P" horiz-adv-x="629" 
d="M258 680c35.333 0 68.665 -6.83496 99.998 -20.502s58.666 -32.167 81.999 -55.5s41.833 -50.666 55.5 -81.999s20.5 -64.666 20.5 -99.999c0 -36 -6.83301 -69.667 -20.5 -101s-32.167 -58.666 -55.5 -81.999s-50.666 -41.833 -81.999 -55.5
s-64.666 -20.5 -99.999 -20.5c-30 0 -58.333 4.83301 -85 14.5s-51 23 -73 40s-40.833 37.167 -56.5 60.5s-27.167 48.666 -34.5 75.999v-350c0 -2.66699 -1.66699 -4 -5 -4c-2.66699 -0 -4 1.33301 -4 4v527c0 3.33301 1.33301 5 4 5c3.33301 0 5 -1.66699 5 -5v-116
c0.666992 -34 7.83398 -65.667 21.501 -95s31.667 -55 54 -77s48.333 -39.333 78 -52s61.5 -19 95.5 -19s66.167 6.5 96.5 19.5s56.833 30.833 79.5 53.5s40.5 49.167 53.5 79.5s19.5 62.833 19.5 97.5c0 34 -6.5 66.167 -19.5 96.5s-30.833 56.833 -53.5 79.5
s-49.167 40.5 -79.5 53.5s-62.5 19.5 -96.5 19.5h-252c-2.66699 0 -4 1.33301 -4 4c0 3.33301 1.33301 5 4 5h252v0z" />
    <glyph glyph-name="Q" unicode="Q" horiz-adv-x="840" 
d="M764 10c2 -2 2.33301 -4.33789 1 -7.00488c-0.666992 -0.666992 -2 -1 -4 -1c-1.33301 0 -2.33301 0.333008 -3 1l-205 182c-2.66699 2 -3 4 -1 6c2.66699 2.66699 5 3 7 1l50 -45c32 45.333 51.667 96 59 152c5.33301 44 2.5 86.833 -8.5 128.5
s-30.5 80.167 -58.5 115.5c-27.333 35.333 -59.833 63.666 -97.5 84.999s-78.5 34.666 -122.5 39.999c-45.333 6 -89 2.83301 -131 -9.5s-79.667 -31.5 -113 -57.5s-61.166 -57.833 -83.499 -95.5s-36.166 -79.167 -41.499 -124.5c-6 -45.333 -2.83301 -89 9.5 -131
s31.5 -79.667 57.5 -113s57.833 -61.166 95.5 -83.499s79.167 -36.166 124.5 -41.499c28 -4 55.833 -4.16699 83.5 -0.5s54.5 10.834 80.5 21.501c2.66699 0 4.66699 -1 6 -3c1.33301 -2.66699 0.333008 -4.66699 -3 -6c-40 -16 -82 -24 -126 -24c-14 0 -28.333 1 -43 3
c-46.667 6 -89.334 20.333 -128.001 43s-71.334 51.167 -98.001 85.5s-46.167 73 -58.5 116s-15.5 87.833 -9.5 134.5s20.333 89.334 43 128.001s51.167 71.334 85.5 98.001s73.166 46.334 116.499 59.001s88 16 134 10c46 -5.33301 88.333 -19.166 127 -41.499
s72 -51.5 100 -87.5s47.833 -75.333 59.5 -118s14.5 -87 8.5 -133c-7.33301 -57.333 -27.666 -109.333 -60.999 -156l148 -131v0z" />
    <glyph glyph-name="R" unicode="R" horiz-adv-x="628" 
d="M515 422c0 -35.333 -6.66797 -68.6699 -20.001 -100.003s-31.666 -58.666 -54.999 -81.999s-50.666 -41.833 -81.999 -55.5s-64.666 -20.5 -99.999 -20.5c-16.667 0 -34 2.66699 -52 8l209 -161c2 -1.33301 2.33301 -3.33301 1 -6
c-1.33301 -1.33301 -2.66602 -2 -3.99902 -2s-2.33301 0.333008 -3 1l-400 310v-310c0 -2.66699 -1.66699 -4 -5 -4c-2.66699 0 -4 1.33301 -4 4v527c0 3.33301 1.33301 5 4 5c3.33301 0 5 -1.66699 5 -5v-206l157 -122c26 -20 56.667 -30 92 -30c34 0 66.167 6.5 96.5 19.5
s56.666 30.833 78.999 53.5s40 49.167 53 79.5s19.5 62.5 19.5 96.5s-6.5 66.167 -19.5 96.5s-30.667 56.833 -53 79.5s-48.666 40.5 -78.999 53.5s-62.5 19.5 -96.5 19.5h-254c-2.66699 0 -4 1.33301 -4 4c0 3.33301 1.33301 5 4 5h254
c35.333 0 68.666 -6.83301 99.999 -20.5s58.666 -32.167 81.999 -55.5s41.666 -50.666 54.999 -81.999s20 -64.666 20 -99.999z" />
    <glyph glyph-name="S" unicode="S" horiz-adv-x="540" 
d="M36 328c1.33301 2 3.33301 2.33398 6 1.00098c2 -2 2.33301 -4 1 -6c-22.667 -35.333 -34 -73 -34 -113v-16c1.33301 -3.33301 0 -5 -4 -5c-2.66699 0 -4 1.33301 -4 4c-0.666992 3.33301 -1 6.33301 -1 9v8c0 43.333 12 82.666 36 117.999zM340 376.001
c25.333 -20 45.166 -44.334 59.499 -73.001s21.5 -59.667 21.5 -93c0 -29.333 -5.5 -56.666 -16.5 -81.999s-26.167 -47.5 -45.5 -66.5s-41.833 -34 -67.5 -45s-52.834 -16.5 -81.501 -16.5c-43.333 0 -83 12.333 -119 37c-2.66699 2 -3 4 -1 6
c1.33301 2.66699 3.33301 3.33398 6 2.00098c34 -24 72 -36 114 -36c28 0 54.333 5.33301 79 16s46 25 64 43s32.333 39.167 43 63.5s16 50.5 16 78.5c0 32 -6.66699 61.667 -20 89s-32.666 50.666 -57.999 69.999c-36 28.667 -77.333 43 -124 43c-18 0 -35 3.66699 -51 11
s-30 17 -42 29s-21.5 26.167 -28.5 42.5s-10.5 33.5 -10.5 51.5c0 18.667 3.5 36.167 10.5 52.5s16.5 30.5 28.5 42.5s26.167 21.5 42.5 28.5s33.833 10.5 52.5 10.5s36.167 -3.5 52.5 -10.5s30.5 -16.5 42.5 -28.5s21.5 -26.167 28.5 -42.5s10.5 -33.833 10.5 -52.5
c0 -2.66699 -1.33301 -4 -4 -4c-3.33301 0 -5 1.33301 -5 4c0 17.333 -3.33301 33.5 -10 48.5s-15.667 28.167 -27 39.5s-24.5 20.333 -39.5 27s-31.167 10 -48.5 10s-33.5 -3.33301 -48.5 -10s-28.167 -15.667 -39.5 -27s-20.333 -24.5 -27 -39.5s-10 -31.167 -10 -48.5
s3.33301 -33.5 10 -48.5s15.667 -28.167 27 -39.5s24.5 -20.333 39.5 -27s31.167 -10 48.5 -10c48.667 -1.33301 91.334 -16.333 128.001 -45z" />
    <glyph glyph-name="T" unicode="T" horiz-adv-x="671" 
d="M579 680c3.33301 0 5 -1.66699 5 -5c0 -2.66699 -1.66699 -4 -5 -4h-575c-2.66699 0 -4 1.33301 -4 4c-0 3.33301 1.33301 5 4 5h575zM292 536c2.66699 0 4 -1.33301 4 -4v-528c0 -2.66699 -1.33301 -4 -4 -4c-3.33301 -0 -5 1.33301 -5 4v528c0 2.66699 1.66699 4 5 4z
" />
    <glyph glyph-name="U" unicode="U" horiz-adv-x="570" 
d="M134 9c2.66699 0 4 -1.66699 4 -5c0 -2.66699 -1.33301 -4 -4 -4c-18.667 0 -36.167 3.5 -52.5 10.5s-30.5 16.5 -42.5 28.5s-21.5 26.167 -28.5 42.5s-10.5 33.833 -10.5 52.5v541c-0 3.33301 1.33301 5 4 5c3.33301 0 5 -1.66699 5 -5v-541
c0 -17.333 3.33301 -33.5 10 -48.5s15.667 -28.167 27 -39.5s24.5 -20.333 39.5 -27s31.167 -10 48.5 -10zM449 680c2.66699 0 4 -1.66699 4 -5v-541c0 -18.667 -3.5 -36.167 -10.5 -52.5s-16.5 -30.5 -28.5 -42.5s-26.167 -21.5 -42.5 -28.5s-33.833 -10.5 -52.5 -10.5
c-2.66699 -0 -4 1.33301 -4 4c0 3.33301 1.33301 5 4 5c17.333 0 33.5 3.33301 48.5 10s28.167 15.667 39.5 27s20.333 24.5 27 39.5s10 31.167 10 48.5v541c0 3.33301 1.66699 5 5 5z" />
    <glyph glyph-name="V" unicode="V" horiz-adv-x="679" 
d="M226 168c1.33301 -2.66699 0.333008 -4.66699 -3 -6h-2c-2 0 -3.33301 1 -4 3l-217 509c-1.33301 2.66699 -0.333008 4.66699 3 6c2.66699 1.33301 4.66699 0.333008 6 -3zM578 680c3.33301 -1.33301 4.33301 -3.33301 3 -6l-286 -671c-1.33301 -2 -3 -3 -5 -3h-1
c-3.33301 1.33301 -4.33301 3.33301 -3 6l286 671c1.33301 3.33301 3.33301 4.33301 6 3z" />
    <glyph glyph-name="W" unicode="W" horiz-adv-x="715" 
d="M4 162c-2.66699 0 -4 1.33301 -4 4v509c-0 3.33301 1.33301 5 4 5c3.33301 0 5 -1.66699 5 -5v-509c0 -2.66699 -1.66699 -4 -5 -4zM610 5c0 -2 -0.332031 -3.33203 -0.999023 -3.99902s-1.66699 -1 -3 -1s-2.33301 0.333008 -3 1l-298 270l-298 -270
c0 -0.666992 -1 -1 -3 -1c-1.33301 0 -2.33301 0.333008 -3 1c-1.33301 1.33301 -1.33301 3.66602 0 6.99902l301 272c1.33301 1.33301 2.33301 2 3 2c1.33301 0 2.66602 -0.666992 3.99902 -2l292 -265v660c0 3.33301 1.66699 5 5 5c2.66699 0 4 -1.66699 4 -5v-670z" />
    <glyph glyph-name="X" unicode="X" horiz-adv-x="629" 
d="M518 7c1.33301 -2.66699 1.00098 -4.66797 -0.999023 -6.00098c-0.666992 -0.666992 -1.66699 -1 -3 -1s-2.66602 0.666992 -3.99902 2l-509 671c-2.66699 2.66699 -2.33398 4.66699 0.999023 6c2.66699 2.66699 4.66699 2.33398 6 -0.999023l251 -331l252 331
c2 2 4 2.33301 6 1c3.33301 -1.33301 3.66602 -3.33301 0.999023 -6l-253 -333zM167.001 235.999c2 2 3.99902 2.33301 5.99902 1c3.33301 -1.33301 3.66602 -3.33301 0.999023 -6l-166 -229c-1.33301 -1.33301 -2.66602 -2 -3.99902 -2l-2 1
c-3.33301 1.33301 -3.66602 3.33301 -0.999023 6z" />
    <glyph glyph-name="Y" unicode="Y" horiz-adv-x="635" 
d="M521 679c3.33301 -1.33301 3.66797 -3.33301 1.00098 -6l-262 -421c-0.666992 -1.33301 -2 -2 -4 -2s-3.33301 0.666992 -4 2l-251 421c-2.66699 2.66699 -2.33398 4.66699 0.999023 6c2.66699 2.66699 4.66699 2.33398 6 -0.999023l248 -416l259 416
c1.33301 3.33301 3.33301 3.66602 6 0.999023zM256.002 114c2.66699 0 4 -1.66699 4 -5v-105c0 -2.66699 -1.33301 -4 -4 -4c-3.33301 -0 -5 1.33301 -5 4v105c0 3.33301 1.66699 5 5 5z" />
    <glyph glyph-name="Z" unicode="Z" horiz-adv-x="746" 
d="M161 671c-3.33301 0 -5 1.33301 -5 4c0 3.33301 1.66699 5 5 5h458c3.33301 0 5 -1.66699 5 -5c0 -2.66699 -1.66699 -4 -5 -4h-458zM641 9c2.66699 0 4 -1.66699 4 -5c0 -2.66699 -1.33301 -4 -4 -4h-637c-2.66699 -0 -4 1.33301 -4 4c-0 1.33301 0.333008 2.33301 1 3
c0 0.666992 0.333008 1 1 1l487 528c2.66699 1.33301 4.66699 1.33301 6 0c2.66699 -2.66699 2.66699 -4.66699 0 -6l-480 -521h626z" />
    <glyph glyph-name="bracketleft" unicode="[" horiz-adv-x="299" 
d="M128 -292c3.33301 0 5 -1.66699 5 -5c0 -2.66699 -1.66699 -4 -5 -4h-123c-3.33301 0 -5 1.33301 -5 4v972c0 3.33301 1.66699 5 5 5h123c3.33301 0 5 -1.66699 5 -5s-1.66699 -5 -5 -5h-119v-962h119v0z" />
    <glyph glyph-name="backslash" unicode="\" horiz-adv-x="435" 
d="M3 680c2 0.666992 3.66699 -0.333008 5 -3l278 -671c1.33301 -2.66699 0.333008 -4.66699 -3 -6h-1c-2.66699 0 -4 1 -4 3l-278 671c-1.33301 2.66699 -0.333008 4.66699 3 6z" />
    <glyph glyph-name="bracketright" unicode="]" horiz-adv-x="299" 
d="M5 -292h118v962h-118c-3.33301 0 -5 1.66699 -5 5s1.66699 5 5 5h123c3.33301 0 5 -1.66699 5 -5v-972c0 -2.66699 -1.66699 -4 -5 -4h-123c-3.33301 0 -5 1.33301 -5 4c0 3.33301 1.66699 5 5 5z" />
    <glyph glyph-name="asciicircum" unicode="^" horiz-adv-x="411" 
d="M301 455c0.666992 -1.33301 0.333008 -2.66602 -1 -3.99902c-0.666992 -0.666992 -1.33398 -1 -2.00098 -1c-2 0 -3 0.666992 -3 2l-144 220l-145 -220c0 -1.33301 -1 -2 -3 -2l-1 1c-3.33301 1.33301 -3.66602 2.66602 -0.999023 3.99902l146 224
c0.666992 0.666992 2 1 4 1s3 -0.333008 3 -1l147 -224v0z" />
    <glyph glyph-name="underscore" unicode="_" horiz-adv-x="508" 
d="M383 -143h-378c-3.33301 0 -5 1.66699 -5 5s1.66699 5 5 5h378c3.33301 0 5 -1.66699 5 -5s-1.66699 -5 -5 -5z" />
    <glyph glyph-name="a" unicode="a" 
d="M439 443c3.33301 0 5 -1.66699 5 -5v-433c0 -3.33301 -1.66699 -5 -5 -5s-5 1.66699 -5 5v217c0 29.333 -5.5 56.833 -16.5 82.5s-26.167 48.167 -45.5 67.5s-41.833 34.5 -67.5 45.5s-53.167 16.5 -82.5 16.5s-56.833 -5.5 -82.5 -16.5s-48.167 -26.167 -67.5 -45.5
s-34.666 -41.833 -45.999 -67.5s-17 -53.167 -17 -82.5s5.66699 -56.833 17 -82.5s26.666 -48.167 45.999 -67.5s41.833 -34.666 67.5 -45.999s53.167 -17 82.5 -17c38.667 0 75 10.333 109 31c4 1.33301 6.33301 0.666016 7 -2.00098
c1.33301 -3.33301 0.666016 -5.33301 -2.00098 -6c-34.667 -21.333 -72.667 -32 -114 -32c-30.667 -0 -59.5 5.83301 -86.5 17.5s-50.5 27.5 -70.5 47.5s-35.833 43.5 -47.5 70.5s-17.5 55.833 -17.5 86.5s5.83301 59.5 17.5 86.5s27.5 50.5 47.5 70.5
s43.5 35.833 70.5 47.5s55.833 17.5 86.5 17.5c24.667 0 48.5 -4 71.5 -12s43.667 -19 62 -33s34.333 -30.667 48 -50s23.834 -40.333 30.501 -63v152c0 3.33301 1.66699 5 5 5z" />
    <glyph glyph-name="b" unicode="b" horiz-adv-x="530" 
d="M222 444c30.667 0 59.498 -5.83301 86.498 -17.5s50.5 -27.5 70.5 -47.5s35.833 -43.5 47.5 -70.5s17.5 -55.833 17.5 -86.5s-5.83301 -59.5 -17.5 -86.5s-27.5 -50.5 -47.5 -70.5s-43.5 -35.833 -70.5 -47.5s-55.833 -17.5 -86.5 -17.5
c-41.333 0 -79.666 10.667 -114.999 32c-2 1.33301 -2.33301 3.33301 -1 6c0.666992 2.66699 2.66699 3.33398 6 2.00098c34 -20.667 70.667 -31 110 -31c29.333 0 56.833 5.66699 82.5 17s48.167 26.666 67.5 45.999s34.5 41.833 45.5 67.5s16.5 53.167 16.5 82.5
s-5.5 56.833 -16.5 82.5s-26.167 48.167 -45.5 67.5s-41.833 34.5 -67.5 45.5s-53.167 16.5 -82.5 16.5s-56.833 -5.5 -82.5 -16.5s-48.167 -26.167 -67.5 -45.5s-34.666 -41.833 -45.999 -67.5s-17 -53.167 -17 -82.5v-217c0 -3.33301 -1.33301 -5 -4 -5
c-3.33301 0 -5 1.66699 -5 5v691c0 2.66699 1.66699 4 5 4c2.66699 0 4 -1.33301 4 -4v-410c6.66699 22.667 17 43.667 31 63s30.167 36 48.5 50s38.833 25 61.5 33s46.667 12 72 12z" />
    <glyph glyph-name="c" unicode="c" horiz-adv-x="485" 
d="M222 9c3.33301 0 5.00098 -1.33301 5.00098 -4c0 -3.33301 -1.66699 -5 -5 -5c-30.667 -0 -59.5 5.83301 -86.5 17.5s-50.5 27.5 -70.5 47.5s-35.833 43.5 -47.5 70.5s-17.5 55.833 -17.5 86.5c0 33.333 7.33301 65.666 22 96.999c2 2.66699 4.33301 3.66699 7 3
c2 -2 2.66699 -4.33301 2 -7c-14.667 -30.667 -22 -61.667 -22 -93c0 -29.333 5.66699 -56.833 17 -82.5s26.666 -48.167 45.999 -67.5s41.833 -34.666 67.5 -45.999s53.167 -17 82.5 -17zM386.001 371c2 -2.66699 2.00098 -4.99805 0.000976562 -6.99805
c-0.666992 -0.666992 -1.66699 -1 -3 -1s-2.66602 0.666992 -3.99902 2c-20 22 -43.667 39 -71 51s-56 18 -86 18s-57.667 -5.33301 -83 -16c-6 -3.33301 -12 -6.5 -18 -9.5s-12 -6.5 -18 -10.5c-2.66699 -1.33301 -4.66699 -1 -6 1c-2 3.33301 -1.66699 5.66602 1 6.99902
c6 4 12 7.66699 18 11s12.667 6.66602 20 9.99902c28 11.333 56.667 17 86 17c31.333 0 61.166 -6.33301 89.499 -19s53.166 -30.667 74.499 -54z" />
    <glyph glyph-name="d" unicode="d" horiz-adv-x="530" 
d="M222 444c24.667 0 48.5 -4 71.5 -12s43.667 -19 62 -33s34.333 -30.667 48 -50s23.834 -40.333 30.501 -63v410c0 2.66699 1.66699 4 5 4s5 -1.33301 5 -4v-691c0 -3.33301 -1.66699 -5 -5 -5s-5 1.66699 -5 5v217c0 29.333 -5.5 56.833 -16.5 82.5
s-26.167 48.167 -45.5 67.5s-41.833 34.5 -67.5 45.5s-53.167 16.5 -82.5 16.5s-56.833 -5.5 -82.5 -16.5s-48.167 -26.167 -67.5 -45.5s-34.666 -41.833 -45.999 -67.5s-17 -53.167 -17 -82.5s5.66699 -56.833 17 -82.5s26.666 -48.167 45.999 -67.5
s41.833 -34.666 67.5 -45.999s53.167 -17 82.5 -17c39.333 0 76 10.333 110 31c3.33301 1.33301 5.33301 0.666016 6 -2.00098c1.33301 -3.33301 0.666016 -5.33301 -2.00098 -6c-34.667 -21.333 -72.667 -32 -114 -32c-30.667 -0 -59.5 5.83301 -86.5 17.5
s-50.5 27.5 -70.5 47.5s-35.833 43.5 -47.5 70.5s-17.5 55.833 -17.5 86.5s5.83301 59.5 17.5 86.5s27.5 50.5 47.5 70.5s43.5 35.833 70.5 47.5s55.833 17.5 86.5 17.5z" />
    <glyph glyph-name="e" unicode="e" horiz-adv-x="532" 
d="M222 444c27.333 0 53.335 -4.66992 78.002 -14.0029s46.667 -22.166 66 -38.499s35.666 -36 48.999 -59s22 -47.833 26 -74.5c0 -3.33301 -1.33301 -5.33301 -4 -6h-2h-311c-3.33301 0 -5 1.66699 -5 5s1.66699 5 5 5h307c-4.66699 24.667 -13.334 47.667 -26.001 69
s-28.334 39.5 -47.001 54.5s-39.5 26.833 -62.5 35.5s-47.5 13 -73.5 13c-36.667 0 -70.834 -8.5 -102.501 -25.5s-57.167 -41.167 -76.5 -72.5c-15.333 -23.333 -25.666 -50 -30.999 -80c-2 -11.333 -3 -22.666 -3 -33.999c0 -29.333 5.66699 -56.833 17 -82.5
s26.666 -48.167 45.999 -67.5s41.833 -34.666 67.5 -45.999s53.167 -17 82.5 -17c34 0 65.667 7.33301 95 22s54 35.667 74 63c9.33301 11.333 17.333 24.666 24 39.999c2 2 4.33301 2.66699 7 2c2.66699 -1.33301 3.33398 -3.33301 2.00098 -6
c-7.33301 -16 -15.666 -30 -24.999 -42c-21.333 -28 -47.333 -49.667 -78 -65s-63.667 -23 -99 -23c-30.667 0 -59.5 5.83301 -86.5 17.5s-50.5 27.5 -70.5 47.5s-35.833 43.5 -47.5 70.5s-17.5 55.833 -17.5 86.5c0 12 1 24 3 36c2.66699 15.333 6.5 29.833 11.5 43.5
s11.833 26.834 20.5 39.501c20.667 32.667 47.5 58 80.5 76s68.5 27 106.5 27z" />
    <glyph glyph-name="f" unicode="f" horiz-adv-x="321" 
d="M189 354c3.33301 0 5.00098 -1.66699 5.00098 -5s-1.66699 -5 -5 -5h-184c-3.33301 0 -5 1.66699 -5 5s1.66699 5 5 5h32v231c1.33301 31.333 12.833 57.833 34.5 79.5s48.167 32.834 79.5 33.501h1h24c3.33301 0 5 -1.66699 5 -5c0 -2.66699 -1.66699 -4 -5 -4h-23
c-14.667 0 -28.5 -2.83301 -41.5 -8.5s-24.333 -13.334 -34 -23.001s-17.334 -21 -23.001 -34s-8.5 -26.833 -8.5 -41.5v-228h143zM42.001 243c2.66699 0 4 -1.66699 4 -5v-233c0 -3.33301 -1.33301 -5 -4 -5c-3.33301 0 -5 1.66699 -5 5v233c0 3.33301 1.66699 5 5 5z" />
    <glyph glyph-name="g" unicode="g" 
d="M438 443c3.33301 0 5 -1.66602 5 -4.99902v-518c0 -30.667 -5.83301 -59.334 -17.5 -86.001s-27.5 -50 -47.5 -70s-43.5 -35.833 -70.5 -47.5s-55.833 -17.5 -86.5 -17.5s-59.334 5.83301 -86.001 17.5s-50 27.5 -70 47.5s-35.833 43.333 -47.5 70
s-17.5 55.334 -17.5 86.001c0 20 2.33301 38.333 7 55c0 2.66699 2 4 6 4c3.33301 -1.33301 4.33301 -3.33301 3 -6c-2 -8.66699 -3.66699 -17.334 -5 -26.001s-2 -17.667 -2 -27c0 -29.333 5.66699 -56.833 17 -82.5s26.5 -48.167 45.5 -67.5s41.333 -34.5 67 -45.5
s53.167 -16.5 82.5 -16.5s56.833 5.5 82.5 16.5s48.167 26.167 67.5 45.5s34.666 41.833 45.999 67.5s17 53.167 17 82.5v302c0 29.333 -5.66699 56.833 -17 82.5s-26.5 48.167 -45.5 67.5s-41.5 34.5 -67.5 45.5s-53.333 16.5 -82 16.5c-29.333 0 -56.833 -5.5 -82.5 -16.5
s-48.167 -26.167 -67.5 -45.5s-34.666 -41.833 -45.999 -67.5s-17 -53.167 -17 -82.5s5.66699 -56.833 17 -82.5s26.666 -48.167 45.999 -67.5s41.833 -34.5 67.5 -45.5s53.167 -16.5 82.5 -16.5c38.667 0 75 10.333 109 31c2.66699 1.33301 4.66699 0.666016 6 -2.00098
c2.66699 -2.66699 2.33398 -4.66699 -0.999023 -6c-35.333 -21.333 -73.333 -32 -114 -32c-30.667 0 -59.5 5.83301 -86.5 17.5s-50.5 27.5 -70.5 47.5s-35.833 43.333 -47.5 70s-17.5 55.334 -17.5 86.001s5.83301 59.5 17.5 86.5s27.5 50.5 47.5 70.5
s43.5 35.833 70.5 47.5s55.833 17.5 86.5 17.5c24.667 0 48.334 -4 71.001 -12s43.167 -19 61.5 -33s34.333 -30.667 48 -50s24.167 -40.333 31.5 -63v152c0 3.33301 1.33301 5 4 5z" />
    <glyph glyph-name="h" unicode="h" horiz-adv-x="462" 
d="M4 142c3.33301 0 5 -1.66699 5 -5v-133c0 -2.66699 -1.66699 -4 -5 -4c-2.66699 -0 -4 1.33301 -4 4v133c-0 3.33301 1.33301 5 4 5zM173 444c24 0 46.502 -4.5 67.502 -13.5s39.333 -21.333 55 -37s28 -34 37 -55s13.5 -43.5 13.5 -67.5v-267
c0 -2.66699 -1.33301 -4 -4 -4c-3.33301 -0 -5 1.33301 -5 4v267c0 22.667 -4.33301 43.834 -13 63.501s-20.334 37 -35.001 52s-32 26.833 -52 35.5s-41.333 13 -64 13s-43.834 -4.33301 -63.501 -13s-37 -20.5 -52 -35.5s-26.833 -32.333 -35.5 -52
s-13 -40.834 -13 -63.501c0 -3.33301 -1.66699 -5 -5 -5c-2.66699 0 -4 1.66699 -4 5v422c-0 3.33301 1.33301 5 4 5c3.33301 0 5 -1.66699 5 -5v-368c11.333 34.667 32 63.167 62 85.5s64 33.5 102 33.5z" />
    <glyph glyph-name="i" unicode="i" horiz-adv-x="175" 
d="M30 425c2.66699 0 4 -1.66699 4 -5v-246c0 -2.66699 -1.33301 -4 -4 -4c-3.33301 0 -5 1.33301 -5 4v246c0 3.33301 1.66699 5 5 5zM30 55c2.66699 0 4 -1.33301 4 -4v-47c0 -2.66699 -1.33301 -4 -4 -4c-3.33301 -0 -5 1.33301 -5 4v47c0 2.66699 1.66699 4 5 4zM30 563
c8 0 15 -3 21 -9s9 -13 9 -21c0 -8.66699 -3 -15.834 -9 -21.501s-13 -8.5 -21 -8.5c-8.66699 0 -15.834 2.83301 -21.501 8.5s-8.5 12.834 -8.5 21.501c0 8 2.83301 15 8.5 21s12.834 9 21.501 9z" />
    <glyph glyph-name="j" unicode="j" horiz-adv-x="231" 
d="M77 563c8 0 14.833 -2.83301 20.5 -8.5s8.5 -12.5 8.5 -20.5c0 -8.66699 -2.83301 -15.834 -8.5 -21.501s-12.5 -8.5 -20.5 -8.5s-14.833 2.83301 -20.5 8.5s-8.5 12.834 -8.5 21.501c0 8 2.83301 14.833 8.5 20.5s12.5 8.5 20.5 8.5zM77 428c3.33301 0 5 -1.66699 5 -5
v-483c0 -3.33301 -1.66699 -5 -5 -5c-2.66699 0 -4 1.66699 -4 5v483c0 3.33301 1.33301 5 4 5zM77 -163c3.33301 0 5 -1.33301 5 -4c0 -21.333 -7.66699 -39.5 -23 -54.5s-33.666 -22.5 -54.999 -22.5c-2.66699 0 -4 1.33301 -4 4c0 3.33301 1.33301 5 4 5
c19.333 0 35.666 6.5 48.999 19.5s20 29.167 20 48.5c0 2.66699 1.33301 4 4 4z" />
    <glyph glyph-name="k" unicode="k" horiz-adv-x="385" 
d="M9 222v-99v-119c0 -2.66699 -1.66699 -4 -5 -4c-2.66699 -0 -4 1.33301 -4 4v119v101v448v21c-0 3.33301 1.33301 5 4 5c3.33301 0 5 -1.66699 5 -5v-21v-438l205 184c2.66699 2.66699 4.66699 2.66699 6 0c2.66699 -2.66699 2.66699 -4.66699 0 -6zM262 8
c2.66699 -2.66699 2.66699 -4.66699 0 -6c-0.666992 -1.33301 -1.66699 -2 -3 -2s-2.33301 0.333008 -3 1l-161 139c-2.66699 1.33301 -2.66699 3.33301 0 6c1.33301 2.66699 3.33301 2.66699 6 0z" />
    <glyph glyph-name="l" unicode="l" horiz-adv-x="220" 
d="M5 186c-3.33301 0 -5 1.66699 -5 5v502c0 3.33301 1.66699 5 5 5c2.66699 0 4 -1.66699 4 -5v-502c0 -3.33301 -1.33301 -5 -4 -5zM80 9c3.33301 0 5 -1.33301 5 -4c0 -3.33301 -1.66699 -5 -5 -5c-22 -0 -40.833 7.83301 -56.5 23.5s-23.5 34.5 -23.5 56.5
c0 3.33301 1.66699 5 5 5c2.66699 0 4 -1.66699 4 -5c0 -19.333 7 -36 21 -50s30.667 -21 50 -21z" />
    <glyph glyph-name="m" unicode="m" horiz-adv-x="677" 
d="M204 435c2 0 3 -1.99902 3 -5.99902c-1.33301 -2.66699 -3.33301 -3.33398 -6 -2.00098c-14.667 4.66699 -30.667 7 -48 7c-20 0 -38.667 -3.66699 -56 -11s-32.5 -17.5 -45.5 -30.5s-23.333 -28.167 -31 -45.5s-11.5 -36 -11.5 -56v-286c0 -3.33301 -1.33301 -5 -4 -5
c-3.33301 0 -5 1.66699 -5 5v433c0 3.33301 1.66699 5 5 5c2.66699 0 4 -1.66699 4 -5v-95c11.333 30 29.833 54.333 55.5 73s55.167 28 88.5 28c18 0 35 -3 51 -9zM451 444.001c20.667 0 40.334 -3.99707 59.001 -11.9971s35 -19 49 -33s25 -30.333 33 -49
s12 -38.334 12 -59.001v-286c0 -3.33301 -1.66699 -5 -5 -5c-2.66699 0 -4 1.66699 -4 5v286c0 20 -3.83301 38.667 -11.5 56s-18 32.5 -31 45.5s-28.167 23.167 -45.5 30.5s-36 11 -56 11c-14 0 -26.667 -1.33301 -38 -4c-31.333 -8.66699 -56.833 -25.834 -76.5 -51.501
s-29.5 -54.834 -29.5 -87.501v-286c0 -3.33301 -1.66699 -5 -5 -5s-5 1.66699 -5 5v289c1.33301 34 12.333 64.333 33 91s47.667 44.667 81 54c6.66699 1.33301 13.167 2.5 19.5 3.5s13.166 1.5 20.499 1.5z" />
    <glyph glyph-name="n" unicode="n" horiz-adv-x="453" 
d="M175 444c24 0 46.666 -4.66699 67.999 -14s40 -21.833 56 -37.5s28.667 -34.167 38 -55.5s14 -44 14 -68v-263c0 -3.33301 -1.66699 -5 -5 -5s-5 1.66699 -5 5v263c0 22.667 -4.33301 44 -13 64s-20.5 37.5 -35.5 52.5s-32.667 26.833 -53 35.5s-41.833 13 -64.5 13
c-8 0 -16.167 -0.5 -24.5 -1.5s-16.166 -2.83301 -23.499 -5.5c-2.66699 -0.666992 -4.66699 0.333008 -6 3c-1.33301 4 -0.333008 6 3 6c18 5.33301 35 8 51 8zM4.99902 443c2.66699 0 4 -1.66699 4 -5v-378v-55c0 -3.33301 -1.33301 -5 -4 -5c-3.33301 0 -5 1.66699 -5 5
v55v378c0 3.33301 1.66699 5 5 5z" />
    <glyph glyph-name="o" unicode="o" 
d="M222 444c30.667 0 59.499 -5.83398 86.499 -17.501s50.5 -27.5 70.5 -47.5s35.833 -43.5 47.5 -70.5s17.5 -55.833 17.5 -86.5s-5.83301 -59.5 -17.5 -86.5s-27.5 -50.5 -47.5 -70.5s-43.5 -35.833 -70.5 -47.5s-55.833 -17.5 -86.5 -17.5s-59.5 5.83301 -86.5 17.5
s-50.5 27.5 -70.5 47.5s-35.833 43.5 -47.5 70.5s-17.5 55.833 -17.5 86.5c0 38 9.33301 73.667 28 107c1.33301 4 3.33301 4.66699 6 2c2.66699 -1.33301 3.33398 -3.33301 2.00098 -6c-17.333 -32.667 -26 -67 -26 -103c0 -29.333 5.5 -56.833 16.5 -82.5
s26.167 -48.167 45.5 -67.5s41.833 -34.5 67.5 -45.5s53.167 -16.5 82.5 -16.5s56.833 5.5 82.5 16.5s48.167 26.167 67.5 45.5s34.5 41.833 45.5 67.5s16.5 53.167 16.5 82.5s-5.5 56.833 -16.5 82.5s-26.167 48.167 -45.5 67.5s-41.833 34.5 -67.5 45.5
s-53.167 16.5 -82.5 16.5c-37.333 0 -71.666 -8.66699 -102.999 -26c-3.33301 -1.33301 -5.33301 -0.666016 -6 2.00098c-2.66699 2.66699 -2.33398 4.66699 0.999023 6c34 18.667 70 28 108 28z" />
    <glyph glyph-name="p" unicode="p" 
d="M222 444c30.667 0 59.4971 -5.83203 86.4971 -17.499s50.5 -27.5 70.5 -47.5s35.833 -43.5 47.5 -70.5s17.5 -55.833 17.5 -86.5s-5.83301 -59.5 -17.5 -86.5s-27.5 -50.5 -47.5 -70.5s-43.5 -35.833 -70.5 -47.5s-55.833 -17.5 -86.5 -17.5
c-41.333 0 -79.666 10.667 -114.999 32c-2.66699 2.66699 -3 5 -1 7c1.33301 3.33301 3.33301 3.66602 6 0.999023c32.667 -20 69.334 -30 110.001 -30c29.333 0 56.833 5.5 82.5 16.5s48.167 26.167 67.5 45.5s34.5 41.833 45.5 67.5s16.5 53.167 16.5 82.5
s-5.5 56.833 -16.5 82.5s-26.167 48.167 -45.5 67.5s-41.833 34.5 -67.5 45.5s-53.167 16.5 -82.5 16.5s-56.833 -5.5 -82.5 -16.5s-48.167 -26.167 -67.5 -45.5s-34.666 -41.833 -45.999 -67.5s-17 -53.167 -17 -82.5v-481c0 -2.66699 -1.33301 -4 -4 -4
c-3.33301 0 -5 1.33301 -5 4v698c0 3.33301 1.66699 5 5 5c2.66699 0 4 -1.66699 4 -5v-153c6.66699 22.667 17 43.667 31 63s30.167 36 48.5 50s38.833 25 61.5 33s46.667 12 72 12z" />
    <glyph glyph-name="q" unicode="q" 
d="M222 444c24.667 0 48.335 -4 71.002 -12s43.334 -19 62.001 -33s34.667 -30.667 48 -50s23.666 -40.333 30.999 -63v153c0 3.33301 1.66699 5 5 5s5 -1.66699 5 -5v-698c0 -2.66699 -1.66699 -4 -5 -4s-5 1.33301 -5 4v481c0 29.333 -5.5 56.833 -16.5 82.5
s-26.167 48.167 -45.5 67.5s-41.833 34.5 -67.5 45.5s-53.167 16.5 -82.5 16.5s-56.833 -5.5 -82.5 -16.5s-48.167 -26.167 -67.5 -45.5s-34.666 -41.833 -45.999 -67.5s-17 -53.167 -17 -82.5s5.66699 -56.833 17 -82.5s26.666 -48.167 45.999 -67.5
s41.833 -34.5 67.5 -45.5s53.167 -16.5 82.5 -16.5c39.333 0 75.666 10 108.999 30c2 2 4.33301 1.66699 7 -1c1.33301 -2 0.666016 -4.33301 -2.00098 -7c-34.667 -21.333 -72.667 -32 -114 -32c-30.667 -0 -59.5 5.83301 -86.5 17.5s-50.5 27.5 -70.5 47.5
s-35.833 43.5 -47.5 70.5s-17.5 55.833 -17.5 86.5s5.83301 59.5 17.5 86.5s27.5 50.5 47.5 70.5s43.5 35.833 70.5 47.5s55.833 17.5 86.5 17.5z" />
    <glyph glyph-name="r" unicode="r" horiz-adv-x="294" 
d="M222 444c3.33301 0 5.00195 -1.66699 5.00195 -5c0 -2.66699 -1.66699 -4 -5 -4c-40 0 -77.667 -11 -113 -33c-0.666992 0 -1.33398 -0.333008 -2.00098 -1c-2.66699 0 -4 1 -4 3c-2.66699 2.66699 -2.33398 4.66699 0.999023 6c36 22.667 75.333 34 118 34zM5.00195 443
c2.66699 0 4 -1.66699 4 -5v-433c0 -3.33301 -1.33301 -5 -4 -5c-3.33301 0 -5 1.66699 -5 5v433c0 3.33301 1.66699 5 5 5z" />
    <glyph glyph-name="s" unicode="s" horiz-adv-x="385" 
d="M23 215c2.66699 2.66699 5.00195 3 7.00195 1c3.33301 -1.33301 3.66602 -3.33301 0.999023 -6c-14.667 -22 -22 -46 -22 -72c0 -11.333 1.66699 -23 5 -35c1.33301 -2.66699 0.333008 -4.66699 -3 -6h-1c-2.66699 0 -4.33398 1.33301 -5.00098 4
c-1.33301 4 -2.33301 8.16699 -3 12.5l-2 13.5v11c0 28 7.66699 53.667 23 77zM223.002 247c17.333 -13.333 30.498 -29.5049 39.498 -48.5049s13.5 -39.167 13.5 -60.5c0 -19.333 -3.66699 -37.333 -11 -54s-17.166 -31.167 -29.499 -43.5s-27 -22.166 -44 -29.499
s-34.833 -11 -53.5 -11c-29.333 0 -55.333 8 -78 24c-2.66699 2 -3.33398 4.33301 -2.00098 7c2.66699 2.66699 5 3 7 1c21.333 -15.333 45.666 -23 72.999 -23c18 0 34.833 3.33301 50.5 10s29.334 15.834 41.001 27.501s20.834 25.334 27.501 41.001s10 32.5 10 50.5
c0 20 -4.33301 38.833 -13 56.5s-21 32.834 -37 45.501c-11.333 8.66699 -23.666 15.334 -36.999 20.001s-27.333 7 -42 7c-24 0.666992 -44.5 9.5 -61.5 26.5s-25.5 37.5 -25.5 61.5c0 24.667 8.5 45.667 25.5 63s37.833 26 62.5 26s45.667 -8.66699 63 -26
s26 -38.333 26 -63c0 -2.66699 -1.66699 -4 -5 -4s-5 1.33301 -5 4c0 22 -7.66699 40.667 -23 56s-34 23 -56 23c-21.333 0 -39.833 -7.66699 -55.5 -23s-23.5 -34 -23.5 -56c0 -21.333 7.83301 -39.833 23.5 -55.5s34.167 -23.5 55.5 -23.5
c31.333 0 59.333 -9.66699 84 -29z" />
    <glyph glyph-name="t" unicode="t" horiz-adv-x="301" 
d="M171 363c3.33301 0 5 -1.66699 5 -5c0 -2.66699 -1.66699 -4 -5 -4h-166c-3.33301 0 -5 1.33301 -5 4c0 3.33301 1.66699 5 5 5h50v219c0 3.33301 1.66699 5 5 5s5 -1.66699 5 -5v-219h106zM136 9c2.66699 0 4 -1.33301 4 -4c0 -3.33301 -1.33301 -5 -4 -5
c-22 0 -40.833 7.66699 -56.5 23s-23.5 34 -23.5 56h-1v168c0 3.33301 1.66699 5 5 5s5 -1.66699 5 -5v-167c0 -19.333 6.83301 -36 20.5 -50s30.5 -21 50.5 -21z" />
    <glyph glyph-name="u" unicode="u" horiz-adv-x="461" 
d="M244 24c2.66699 1.33301 4.66699 0.666992 6 -2c0.666992 -2.66699 -0.333008 -5 -3 -7c-22 -10 -46 -15 -72 -15c-24 0 -46.667 4.66699 -68 14s-39.833 21.833 -55.5 37.5s-28.167 34.167 -37.5 55.5s-14 44 -14 68v263c0 3.33301 1.66699 5 5 5
c2.66699 0 4 -1.66699 4 -5v-263c0 -22.667 4.33301 -44.167 13 -64.5s20.5 -38 35.5 -53s32.667 -26.833 53 -35.5s41.833 -13 64.5 -13c24 0 47 5 69 15zM346 444.001c3.33301 0 5 -1.66699 5 -5v-433c0 -3.33301 -1.66699 -5 -5 -5s-5 1.66699 -5 5v433
c0 3.33301 1.66699 5 5 5z" />
    <glyph glyph-name="v" unicode="v" horiz-adv-x="479" 
d="M142 130c1.33301 -2.66699 0.333008 -4.66602 -3 -5.99902h-2c-2 0 -3.33301 1 -4 3l-133 310c-1.33301 3.33301 -0.333008 5.66602 3 6.99902c2.66699 1.33301 4.66699 0.333008 6 -3zM377 444.001c3.33301 -2 4.00098 -4.33203 2.00098 -6.99902l-185 -434
c0 -2 -1.33301 -3 -4 -3h-2c-2.66699 1.33301 -3.33398 3.66602 -2.00098 6.99902l185 434c1.33301 3.33301 3.33301 4.33301 6 3z" />
    <glyph glyph-name="w" unicode="w" horiz-adv-x="553" 
d="M5 116c-3.33301 0 -5 1.33301 -5 4v319c0 3.33301 1.66699 5 5 5c2.66699 0 4 -1.66699 4 -5v-319c0 -2.66699 -1.33301 -4 -4 -4zM461 444c3.33301 0 5.00098 -1.66699 5.00098 -5v-434c0 -3.33301 -1.66699 -5 -5 -5h-1c-0.666992 -0 -1.33398 0.333008 -2.00098 1
l-225 175l-225 -175c-0.666992 -0.666992 -1.66699 -1 -3 -1s-2.66602 0.666992 -3.99902 2c-2.66699 2.66699 -2.33398 4.66699 0.999023 6l227 177c0.666992 0.666992 2 1 4 1c1.33301 0 2.33301 -0.333008 3 -1l220 -171v425c0 3.33301 1.66699 5 5 5z" />
    <glyph glyph-name="x" unicode="x" horiz-adv-x="442" 
d="M337 9c1.33301 -2.66699 0.999023 -4.66699 -1.00098 -6c-0.666992 -0.666992 -1.66699 -1 -3 -1s-2.66602 0.666992 -3.99902 2l-328 432c-2 2 -1.66699 4.33301 1 7s4.66699 2.33398 6 -0.999023l162 -212l159 209c2 3.33301 4.33301 3.66602 7 0.999023
c2 -1.33301 2.33301 -3.33301 1 -6l-161 -212zM112.999 156c2 2 4.33203 2 6.99902 0c2 -1.33301 2.33301 -3.33301 1 -6l-113 -148c-1.33301 -1.33301 -2.33301 -2 -3 -2c-1.33301 -0 -2.33301 0.333008 -3 1c-3.33301 1.33301 -3.66602 3.33301 -0.999023 6z" />
    <glyph glyph-name="y" unicode="y" horiz-adv-x="486" 
d="M380 440c2.66699 -1.33301 3.33203 -3.33398 1.99902 -6.00098l-331 -680c-1.33301 -2 -2.66602 -3 -3.99902 -3h-2c-2.66699 2 -3.66699 4.33301 -3 7l332 680c1.33301 2.66699 3.33301 3.33398 6 2.00098zM114.998 150.999c-2.66699 0 -4.33301 1 -5 3l-110 284
c-1.33301 2.66699 -0.333008 4.66699 3 6c2.66699 1.33301 4.66699 0.333008 6 -3l110 -283c0.666992 -3.33301 -0.333008 -5.33301 -3 -6c0 -0.666992 -0.333008 -1 -1 -1z" />
    <glyph glyph-name="z" unicode="z" horiz-adv-x="503" 
d="M106 434c-3.33301 0 -5 1.66699 -5 5s1.66699 5 5 5h297c3.33301 0 5 -1.66699 5 -5s-1.66699 -5 -5 -5h-297zM417 9c3.33301 0 5 -1.33301 5 -4c0 -3.33301 -1.66699 -5 -5 -5h-412c-3.33301 0 -5 1.66699 -5 5c0 0.666992 0.666992 1.66699 2 3l314 344
c2 2 4.33301 2 7 0c2 -2.66699 2 -5 0 -7l-307 -336h401z" />
    <glyph glyph-name="braceleft" unicode="{" horiz-adv-x="338" 
d="M170 -292c3.33301 0 5 -1.33496 5 -4.00195c0 -3.33301 -1.66699 -5 -5 -5c-26.667 0 -49.334 9.33301 -68.001 28s-28 41.334 -28 68.001v318l-73 73c-1.33301 2 -1.33301 4.33301 0 7l73 73v318c0 26.667 9.33301 49.334 28 68.001s41.334 28 68.001 28
c3.33301 0 5 -1.66699 5 -5c0 -2.66699 -1.66699 -4 -5 -4c-24 0 -44.5 -8.5 -61.5 -25.5s-25.5 -37.5 -25.5 -61.5v-789c0 -24 8.5 -44.5 25.5 -61.5s37.5 -25.5 61.5 -25.5z" />
    <glyph glyph-name="bar" unicode="|" horiz-adv-x="182" 
d="M5 680c2.66699 0 4 -1.66699 4 -5v-971c0 -3.33301 -1.33301 -5 -4 -5c-3.33301 0 -5 1.66699 -5 5v971c0 3.33301 1.66699 5 5 5z" />
    <glyph glyph-name="braceright" unicode="}" horiz-adv-x="338" 
d="M0 -296c0 2.66699 1.66699 3.99805 5 3.99805c12 0 23.167 2.33301 33.5 7s19.333 10.834 27 18.501s13.834 16.834 18.501 27.501s7 22 7 34v789c0 12 -2.33301 23.333 -7 34s-10.834 19.834 -18.501 27.501s-16.667 13.834 -27 18.501s-21.5 7 -33.5 7
c-3.33301 0 -5 1.33301 -5 4c0 3.33301 1.66699 5 5 5c12.667 0 24.834 -2.5 36.501 -7.5s21.834 -11.833 30.501 -20.5s15.5 -18.834 20.5 -30.501s7.5 -24.167 7.5 -37.5v-318l73 -73c2 -2.66699 2 -5 0 -7l-73 -73v-318c0 -13.333 -2.5 -25.833 -7.5 -37.5
s-11.833 -21.834 -20.5 -30.501s-18.834 -15.5 -30.501 -20.5s-23.834 -7.5 -36.501 -7.5c-3.33301 0 -5 1.66699 -5 5z" />
    <glyph glyph-name="asciitilde" unicode="~" horiz-adv-x="305" 
d="M183 231c1.33301 -1.33301 1.66797 -3 1.00098 -5c-10 -14 -23 -21 -39 -21c-8 0 -16.333 2.66699 -25 8l-60 39c-9.33301 6 -19 8 -29 6c-10.667 -2 -18.667 -7.66699 -24 -17c-1.33301 -1.33301 -2.33301 -2 -3 -2s-1.33398 0.333008 -2.00098 1
c-2.66699 1.33301 -3 3 -1 5c6 10 15.667 16.667 29 20c12.667 2 24 -0.333008 34 -7l60 -39c9.33301 -6 19.166 -8 29.499 -6s18.5 7.66699 24.5 17c0.666992 2 2.33398 2.33301 5.00098 1z" />
    <glyph glyph-name="tilde" unicode="&#x2dc;" horiz-adv-x="305" 
d="M183 231c1.33301 -1.33301 1.66797 -3 1.00098 -5c-10 -14 -23 -21 -39 -21c-8 0 -16.333 2.66699 -25 8l-60 39c-9.33301 6 -19 8 -29 6c-10.667 -2 -18.667 -7.66699 -24 -17c-1.33301 -1.33301 -2.33301 -2 -3 -2s-1.33398 0.333008 -2.00098 1
c-2.66699 1.33301 -3 3 -1 5c6 10 15.667 16.667 29 20c12.667 2 24 -0.333008 34 -7l60 -39c9.33301 -6 19.166 -8 29.499 -6s18.5 7.66699 24.5 17c0.666992 2 2.33398 2.33301 5.00098 1z" />
    <glyph glyph-name="endash" unicode="&#x2013;" horiz-adv-x="321" 
d="M196 241h-190c-4 0 -6 2 -6 6s2 6 6 6h190c3.33301 0 5 -2 5 -6s-1.66699 -6 -5 -6z" />
    <glyph glyph-name="emdash" unicode="&#x2014;" horiz-adv-x="411" 
d="M286 241h-280c-4 0 -6 2 -6 6s2 6 6 6h280c3.33301 0 5 -2 5 -6s-1.66699 -6 -5 -6z" />
    <glyph glyph-name="quoteleft" unicode="&#x2018;" horiz-adv-x="279" 
d="M71 592c19.333 0 36 -7 50 -21s21 -30.667 21 -50s-7 -36 -21 -50s-30.667 -21 -50 -21s-36 7 -50 21s-21 30.667 -21 50c0 5.33301 0.5 10 1.5 14s2.16699 8.33301 3.5 13v1h1l59 128c2 3.33301 5 4.33301 9 3c2.66699 -2 3.66699 -5 3 -9l-42 -89
c11.333 6.66699 23.333 10 36 10z" />
    <glyph glyph-name="quoteright" unicode="&#x2019;" horiz-adv-x="279" 
d="M71 538c-19.333 0 -36 7.00098 -50 21.001s-21 30.667 -21 50s7 36 21 50s30.667 21 50 21s36 -7 50 -21s21 -30.667 21 -50c0 -8.66699 -1.66699 -17.334 -5 -26.001v-1c-0.666992 0 -1 -0.333008 -1 -1l-59 -127c-2.66699 -4 -5.66699 -5 -9 -3
c-3.33301 1.33301 -4.33301 4 -3 8l42 89c-11.333 -6.66699 -23.333 -10 -36 -10z" />
    <glyph glyph-name="quotedblleft" unicode="&#x201c;" horiz-adv-x="464" 
d="M286 592c19.333 0 36 -7 50 -21s21 -30.667 21 -50s-7 -36 -21 -50s-30.667 -21 -50 -21s-36 7 -50 21s-21 30.667 -21 50c0 5.33301 0.5 10 1.5 14s2.16699 8.33301 3.5 13v1h1l59 128c2 3.33301 4.66699 4.33301 8 3c4 -2 5 -5 3 -9l-41 -89
c11.333 6.66699 23.333 10 36 10zM71 592c19.333 0 36 -7 50 -21s21 -30.667 21 -50s-7 -36 -21 -50s-30.667 -21 -50 -21s-36 7 -50 21s-21 30.667 -21 50c0 5.33301 0.5 10 1.5 14s2.16699 8.33301 3.5 13v1h1l59 128c2 3.33301 5 4.33301 9 3c2.66699 -2 3.66699 -5 3 -9
l-42 -89c11.333 6.66699 23.333 10 36 10z" />
    <glyph glyph-name="quotedblright" unicode="&#x201d;" horiz-adv-x="464" 
d="M71 538c-19.333 0 -36 7.00098 -50 21.001s-21 30.667 -21 50s7 36 21 50s30.667 21 50 21s36 -7 50 -21s21 -30.667 21 -50c0 -8.66699 -1.66699 -17.334 -5 -26.001v-1c-0.666992 0 -1 -0.333008 -1 -1l-59 -127c-2.66699 -4 -5.66699 -5 -9 -3
c-3.33301 1.33301 -4.33301 4 -3 8l42 89c-11.333 -6.66699 -23.333 -10 -36 -10zM286 538.001c-19.333 0 -36 7.00098 -50 21.001s-21 30.667 -21 50s7 36 21 50s30.667 21 50 21s36 -7 50 -21s21 -30.667 21 -50c0 -8.66699 -1.66699 -17.334 -5 -26.001l-1 -1v-1
l-60 -127c-1.33301 -4.66699 -4 -5.66699 -8 -3c-3.33301 1.33301 -4.33301 4 -3 8l42 89c-12 -6.66699 -24 -10 -36 -10z" />
    <glyph glyph-name="fraction" unicode="&#x2044;" horiz-adv-x="280" 
 />
    <glyph glyph-name="_0127" horiz-adv-x="0" 
 />
  </font>
</defs>
</svg>
